<?xml version="1.0" encoding="utf-8"?>
<!-- Generator: Adobe Illustrator 21.0.0, SVG Export Plug-In . SVG Version: 6.00 Build 0)  -->
<svg version="1.1" id="layer1" xmlns="http://www.w3.org/2000/svg" xmlns:xlink="http://www.w3.org/1999/xlink" x="0px" y="0px"
	 viewBox="0 0 212.6 56.7" style="enable-background:new 0 0 212.6 56.7;" xml:space="preserve">
<style type="text/css">
	.st0{fill: #F3F3F3;stroke: #7A9EB1;stroke-width: 1.2;stroke-dasharray: 1200;stroke-dashoffset: 1200;animation: logo 8s ease-in infinite;}
	@keyframes logo {
	    0%   {stroke-dashoffset: 1200;}
	    80%   {stroke-dashoffset: 0;}
	    100% {stroke-dashoffset: 1200;}
	}
</style>
<g>
	<g>
		<path class="st0" d="M23.6,31.5v10c0,1.1,0,2.2,0.1,3.3h-1.3c0.1-1.1,0.1-2.2,0.1-3.3V31.4L12.7,15c-0.7-1.1-1.3-2.2-2.2-3.3H12
			c0.5,1.1,1.2,2.2,1.9,3.3l9.2,15.4L31.8,15c0.6-1.1,1.2-2.2,1.8-3.3h1.5c-0.8,1.1-1.5,2.2-2.1,3.3L23.6,31.5z"/>
		<path class="st0" d="M35.1,11.7h-1.5c-0.6,1.1-1.2,2.2-1.8,3.3l-8.7,15.4L13.9,15c-0.7-1.1-1.4-2.2-1.9-3.3h-1.5
			c0.9,1.1,1.5,2.2,2.2,3.3l9.8,16.4v10.1c0,1.1,0,2.2-0.1,3.3h1.3c-0.1-1.1-0.1-2.2-0.1-3.3v-10L33,15
			C33.6,13.9,34.3,12.8,35.1,11.7L35.1,11.7z"/>
	</g>
	<g>
		<path class="st0" d="M36.3,32.9v0.2c0,6.8,3.9,11.2,9.9,11.2c2.4,0,4.6-0.7,6.3-1.9c0.7-0.5,1.3-1.1,1.8-1.8l0.7,0.7
			c-0.4,0.5-1.1,1.2-1.7,1.6c-1.9,1.5-4.4,2.4-7.1,2.4c-6.5,0-10.9-4.9-10.9-12.2c0-7.5,4-12,10.6-12c6.2,0,9.8,4,9.8,11v0.8H36.3z
			 M54.6,32c0-6.4-3.1-10-8.8-10c-5.6,0-9.1,3.7-9.4,10H54.6z"/>
		<path class="st0" d="M45.9,21.1c-6.6,0-10.6,4.5-10.6,12c0,7.3,4.4,12.2,10.9,12.2c2.7,0,5.2-0.9,7.1-2.4c0.6-0.4,1.3-1.1,1.7-1.6
			l-0.7-0.7c-0.5,0.7-1.1,1.3-1.8,1.8c-1.7,1.2-3.9,1.9-6.3,1.9c-6,0-9.9-4.4-9.9-11.2v-0.2h19.4v-0.8
			C55.7,25.1,52.1,21.1,45.9,21.1L45.9,21.1z M36.4,32c0.3-6.3,3.8-10,9.4-10c5.7,0,8.8,3.6,8.8,10H36.4L36.4,32z"/>
	</g>
	<g>
		<path class="st0" d="M79.2,44.8c0.1-1,0.1-1.9,0.1-3.3V30c0-5.1-2.5-7.9-7.3-7.9c-5.1,0-8.6,3.3-8.6,8v11.4c0,1.5,0,2.4,0.1,3.3
			h-1.3c0.1-0.9,0.1-1.8,0.1-3.3V25c0-1.6,0-2.4-0.1-3.3h1.2v1.9c0,1,0,2.3-0.2,3.3h0.1c1.2-3.4,4.5-5.7,8.7-5.7
			c5.2,0,8.2,3.1,8.2,8.6v11.7c0,1.5,0,2.4,0.1,3.3H79.2z"/>
		<path class="st0" d="M72,21.2c-4.2,0-7.5,2.3-8.7,5.7h-0.1c0.2-1,0.2-2.3,0.2-3.3v-1.9h-1.2c0.1,0.9,0.1,1.7,0.1,3.3v16.5
			c0,1.5,0,2.4-0.1,3.3h1.3c-0.1-0.9-0.1-1.8-0.1-3.3V30.1c0-4.7,3.5-8,8.6-8c4.8,0,7.3,2.8,7.3,7.9v11.5c0,1.4,0,2.3-0.1,3.3h1.1
			c-0.1-0.9-0.1-1.8-0.1-3.3V29.8C80.2,24.3,77.2,21.2,72,21.2L72,21.2z"/>
	</g>
	<g>
		<path class="st0" d="M108.6,11.6c1.1,0,2.2,0,3.3-0.1v1.2c-1.1-0.1-2.2-0.1-3.3-0.1h-9.1v28.9c0,1.1,0,2.2,0.1,3.3h-1.3
			c0.1-1.1,0.1-2.2,0.1-3.3V12.6h-9.1c-1.1,0-2.2,0-3.3,0.1v-1.2c1.1,0.1,2.2,0.1,3.3,0.1C89.3,11.6,108.6,11.6,108.6,11.6z"/>
		<path class="st0" d="M111.9,11.5c-1.1,0.1-2.2,0.1-3.3,0.1H89.3c-1.1,0-2.2,0-3.3-0.1v1.2c1.1-0.1,2.2-0.1,3.3-0.1h9.1v28.9
			c0,1.1,0,2.2-0.1,3.3h1.3c-0.1-1.1-0.1-2.2-0.1-3.3V12.6h9.1c1.1,0,2.2,0,3.3,0.1L111.9,11.5L111.9,11.5z"/>
	</g>
	<g>
		<path class="st0" d="M111.9,32.9v0.2c0,6.8,3.9,11.2,9.9,11.2c2.4,0,4.6-0.7,6.3-1.9c0.7-0.5,1.3-1.1,1.8-1.8l0.7,0.7
			c-0.4,0.5-1.1,1.2-1.7,1.6c-1.9,1.5-4.4,2.4-7.1,2.4c-6.5,0-10.9-4.9-10.9-12.2c0-7.5,4-12,10.6-12c6.2,0,9.8,4,9.8,11v0.8H111.9z
			 M130.2,32c0-6.4-3.1-10-8.8-10c-5.6,0-9.1,3.7-9.4,10H130.2z"/>
		<path class="st0" d="M121.5,21.1c-6.6,0-10.6,4.5-10.6,12c0,7.3,4.4,12.2,10.9,12.2c2.7,0,5.2-0.9,7.1-2.4
			c0.6-0.4,1.3-1.1,1.7-1.6l-0.7-0.7c-0.5,0.7-1.1,1.3-1.8,1.8c-1.7,1.2-3.9,1.9-6.3,1.9c-6,0-9.9-4.4-9.9-11.2v-0.2h19.4v-0.8
			C131.3,25.1,127.7,21.1,121.5,21.1L121.5,21.1z M112,32c0.3-6.3,3.8-10,9.4-10c5.7,0,8.8,3.6,8.8,10H112L112,32z"/>
	</g>
	<g>
		<path class="st0" d="M173.6,41.5c0,1.1,0,2.2,0.1,3.3h-1.3c0.1-1.1,0.1-2.2,0.1-3.3V27.9h-22.9v13.5c0,1.1,0,2.2,0.1,3.3h-1.3
			c0.1-1.1,0.1-2.2,0.1-3.3V15c0-1.1,0-2.2-0.1-3.3h1.3c-0.1,1.1-0.1,2.2-0.1,3.3v12h22.9V15c0-1.1,0-2.2-0.1-3.3h1.3
			c-0.1,1.1-0.1,2.2-0.1,3.3V41.5z"/>
		<path class="st0" d="M173.7,11.7h-1.3c0.1,1.1,0.1,2.2,0.1,3.3v12h-22.9V15c0-1.1,0-2.2,0.1-3.3h-1.3c0.1,1.1,0.1,2.2,0.1,3.3
			v26.4c0,1.1,0,2.2-0.1,3.3h1.3c-0.1-1.1-0.1-2.2-0.1-3.3V27.9h22.9v13.6c0,1.1,0,2.2-0.1,3.3h1.3c-0.1-1.1-0.1-2.2-0.1-3.3V15
			C173.6,13.9,173.6,12.8,173.7,11.7L173.7,11.7z M149.7,11.7L149.7,11.7L149.7,11.7z"/>
	</g>
	<g>
		<path class="st0" d="M202.1,33.3c0,7.3-4.1,12-10.4,12c-6.2,0-10.4-4.9-10.4-12.1c0-7.3,4.1-12,10.4-12
			C197.9,21.2,202.1,26.1,202.1,33.3z M201,33.3c0-6.7-3.7-11.1-9.4-11.1s-9.4,4.3-9.4,11s3.7,11.1,9.4,11.1
			C197.4,44.3,201,40.1,201,33.3z"/>
		<path class="st0" d="M191.7,21.2c-6.3,0-10.4,4.7-10.4,12c0,7.2,4.2,12.1,10.4,12.1c6.3,0,10.4-4.7,10.4-12
			C202.1,26.1,197.9,21.2,191.7,21.2L191.7,21.2z M191.6,44.3c-5.7,0-9.4-4.4-9.4-11.1s3.7-11,9.4-11s9.4,4.4,9.4,11.1
			C201,40.1,197.4,44.3,191.6,44.3L191.6,44.3z"/>
	</g>
</g>
</svg>
