<?xml version="1.0" encoding="utf-8"?>
<!-- Generator: Adobe Illustrator 21.0.0, SVG Export Plug-In . SVG Version: 6.00 Build 0)  -->
<svg version="1.1" xmlns="http://www.w3.org/2000/svg" xmlns:xlink="http://www.w3.org/1999/xlink" x="0px" y="0px"
	 viewBox="0 0 464 137" style="enable-background:new 0 0 464 137;" xml:space="preserve">
<style type="text/css">
	.st0{display:none;}
	.st1{display:inline;}
	.st2{fill:none;stroke:#00A68D;stroke-miterlimit:10;}
	.st3{fill:#00A68D;}
</style>
<g id="layer1" class="st0">
	<g class="st1">
		<path d="M36.9,75.4L15.5,36.1H40l8,14.6l7.9-14.6h24.5L58.9,75.4v29.7h-22V75.4z M49.3,96.9V72.1l15.1-27.7h-3.2L47.9,68.9
			L34.6,44.4h-3.1l15,27.7v24.7H49.3z"/>
		<path d="M81.9,36.1h40.6v18.1h-18.6v7.7h18.3v17.2h-18.3v8h19.3v18.1H81.9V36.1z M115.6,96.9v-2.5H94.9V71.7h19.7v-2.5H94.9V46.9
			h20.7v-2.5H92.2v52.4H115.6z"/>
		<path d="M129.4,36.1h18.1l19,26.6V36.1h21.6v69H170l-18.9-26.5v26.5h-21.6V36.1z M141.8,96.9V49.1l34.1,47.8h2.7V44.4h-2.7v47.8
			l-34.1-47.8h-2.7v52.4H141.8z"/>
		<path d="M204.5,54.2h-12.7V36.1H240v18.1h-12.7v50.9h-22.8V54.2z M217.3,96.9v-50h14.8v-2.5h-32.3v2.5h14.8v50H217.3z"/>
		<path d="M243.6,36.1h40.6v18.1h-18.6v7.7H284v17.2h-18.3v8H285v18.1h-41.4V36.1z M277.4,96.9v-2.5h-20.7V71.7h19.7v-2.5h-19.7
			V46.9h20.7v-2.5H254v52.4H277.4z"/>
		<path d="M311.9,36.1h22v23.5h12.3V36.1h22.1v69h-22.1V79.6h-12.3v25.5h-22V36.1z M324.9,96.9V70.7h30.4v26.2h2.7V44.4h-2.7v23.8
			h-30.4V44.4h-2.7v52.4H324.9z"/>
		<path d="M374.1,70.7c0-5,0.9-9.7,2.8-14.1c1.9-4.4,4.5-8.3,7.8-11.5c3.3-3.3,7.1-5.9,11.5-7.8c4.4-1.9,9.1-2.8,14.1-2.8
			s9.7,0.9,14.1,2.8c4.4,1.9,8.3,4.5,11.5,7.8c3.3,3.3,5.9,7.1,7.8,11.5c1.9,4.4,2.8,9.1,2.8,14.1s-0.9,9.7-2.8,14.1
			c-1.9,4.4-4.5,8.3-7.8,11.5c-3.3,3.3-7.1,5.9-11.5,7.8c-4.4,1.9-9.1,2.8-14.1,2.8s-9.7-0.9-14.1-2.8c-4.4-1.9-8.3-4.5-11.5-7.8
			c-3.3-3.3-5.9-7.1-7.8-11.5C375,80.3,374.1,75.7,374.1,70.7z M383.8,70.7c0,3.7,0.7,7.1,2.1,10.3c1.4,3.2,3.3,6,5.7,8.4
			c2.4,2.4,5.2,4.3,8.4,5.7c3.2,1.4,6.6,2.1,10.3,2.1c3.7,0,7.1-0.7,10.3-2.1c3.2-1.4,6-3.3,8.4-5.7c2.4-2.4,4.3-5.2,5.7-8.4
			c1.4-3.2,2.1-6.6,2.1-10.3c0-3.7-0.7-7.1-2.1-10.3c-1.4-3.2-3.3-6-5.7-8.4c-2.4-2.4-5.2-4.3-8.4-5.7c-3.2-1.4-6.6-2.1-10.3-2.1
			c-3.7,0-7.1,0.7-10.3,2.1c-3.2,1.4-6,3.3-8.4,5.7c-2.4,2.4-4.3,5.2-5.7,8.4C384.5,63.6,383.8,67,383.8,70.7z M410.3,94.5
			c-3.3,0-6.4-0.6-9.3-1.9c-2.9-1.2-5.4-2.9-7.6-5.1c-2.2-2.2-3.9-4.7-5.1-7.6c-1.2-2.9-1.9-5.9-1.9-9.3c0-3.3,0.6-6.4,1.9-9.3
			c1.2-2.9,2.9-5.4,5.1-7.6c2.2-2.2,4.7-3.9,7.6-5.1c2.9-1.2,5.9-1.9,9.3-1.9s6.4,0.6,9.3,1.9c2.9,1.2,5.4,2.9,7.6,5.1
			c2.2,2.2,3.9,4.7,5.1,7.6c1.2,2.9,1.9,5.9,1.9,9.3c0,3.3-0.6,6.4-1.9,9.3c-1.2,2.9-2.9,5.4-5.1,7.6c-2.2,2.2-4.7,3.9-7.6,5.1
			C416.7,93.9,413.6,94.5,410.3,94.5z M395.8,70.7c0,2,0.4,3.9,1.1,5.6c0.8,1.8,1.8,3.3,3.1,4.6c1.3,1.3,2.8,2.3,4.6,3.1
			c1.8,0.8,3.6,1.1,5.6,1.1c2,0,3.9-0.4,5.6-1.1c1.8-0.8,3.3-1.8,4.6-3.1c1.3-1.3,2.3-2.8,3.1-4.6c0.8-1.8,1.1-3.6,1.1-5.6
			c0-2-0.4-3.9-1.1-5.6c-0.8-1.8-1.8-3.3-3.1-4.6c-1.3-1.3-2.8-2.3-4.6-3.1c-1.8-0.8-3.6-1.1-5.6-1.1c-2,0-3.9,0.4-5.6,1.1
			c-1.8,0.8-3.3,1.8-4.6,3.1c-1.3,1.3-2.3,2.8-3.1,4.6C396.2,66.8,395.8,68.7,395.8,70.7z"/>
	</g>
</g>
<g id="layer2">
	<g>
		<g>
			<path class="st2" d="M362.9,47.1l-8.7,22.3c-0.4,1,0.3,2,1.4,2H373c1.1,0,1.8-1.1,1.4-2l-8.7-22.3
				C365.2,45.8,363.4,45.8,362.9,47.1z"/>
			<path class="st2" d="M356,53.5L347,69.2c-0.6,1,0.1,2.2,1.3,2.2h18.1c1.2,0,1.9-1.2,1.3-2.2l-9.1-15.7
				C358.1,52.5,356.6,52.5,356,53.5z"/>
			<path class="st2" d="M370.8,56.4l-8.1,12.8c-0.6,1,0.1,2.3,1.3,2.3h16.3c1.2,0,1.9-1.3,1.3-2.3l-8.1-12.8
				C372.8,55.5,371.4,55.5,370.8,56.4z"/>
		</g>
		<g>
			<g>
				<path d="M141.9,47.2c0.7,0.3,1.1,1.1,0.8,1.8c-1.6,3.9-5.8,15.6-8.2,20.6c-0.8,1.7-2.3,1.8-3.3,0.2c-1.8-2.9-4.1-8-5.7-10.8
					c-0.5-0.9-1.9-0.9-2.4,0c-1.7,3-3.9,8.4-5.8,11.6c-1.2,2-2.9,1.8-3.8-0.2c-2.3-5.5-5.3-17.1-6.9-21.7c-0.2-0.7,0.1-1.5,0.8-1.8
					l0.4-0.2c0.8-0.4,1.7,0,2,0.8c1.2,3.9,3.7,11.4,5.2,15.7c0.4,1.2,2,1.3,2.6,0.2c0.7-1.2,1.3-2.8,1.9-4.4
					c2.6-6.5,7.1-6.6,9.9-0.2c0.9,2.1,1.8,4.1,2.8,5.4c0.4,0.5,1.1,0.4,1.3-0.2c1.4-3.8,4.9-12.7,6.2-16.3c0.3-0.7,1.1-1.1,1.9-0.8
					L141.9,47.2z"/>
				<path d="M159.9,72.2c-0.6,0.6-7.3-0.2-10.3-0.3c-0.8,0-1.4-0.7-1.4-1.4c0.1-2.5,0.1-7,0.1-7.6v-4.1c0-0.4,0-4.8-0.1-7.2
					c0-0.8,0.6-1.4,1.3-1.4c2.7-0.1,8.7-1.4,9.7-0.5c0.5,0.4,1.2,2.3,0.1,2.6c-1,0.3-4.5,0.1-6.5,0.1c-0.8,0-1.4,0.6-1.4,1.4v4.7
					c0,0.8,0.7,1.4,1.5,1.4c1.6-0.1,4.6-0.7,5.5,0c0.5,0.4,0.5,1.5,0,2c-0.5,0.6-3.7,0.3-5.5,0.3c-0.8,0-1.4,0.6-1.4,1.4v4.5
					c0,0.8,0.6,1.4,1.4,1.4c1.8,0,4.5-0.6,6.9-0.1C160.5,69.6,160.4,71.7,159.9,72.2z"/>
				<path d="M185.1,71.9c-0.8,0-1.4-0.7-1.4-1.5c0.1-3.3,0.1-11.2,0.1-15.9l0-4c0-0.8-0.6-1.4-1.4-1.4c-2.7,0-5.6,0.1-7.4,0.2
					c-0.8,0-1.5-0.6-1.5-1.4v-0.5c0-0.6,0.5-1,1.1-1c2.8,0.2,9.1,0.3,9.4,0.3h3.2c0.6,0,6.5-0.1,9.2-0.3c0.6,0,1.1,0.4,1.1,1V48
					c0,0.8-0.7,1.5-1.5,1.4c-1.9-0.1-5-0.2-7.4-0.2c-0.8,0-1.4,0.6-1.4,1.4l0,4.6c0,5.8,0.2,12.4,0.4,15.3c0,0.8-0.6,1.5-1.4,1.5
					L185.1,71.9z"/>
				<path d="M205.2,62.5c0,0.9,0.1,5.6,0.1,8c0,0.8-0.6,1.4-1.4,1.4h-0.5c-0.8,0-1.4-0.6-1.4-1.4c0-2.9,0-9.2,0-9.8v-2.5
					c0-0.6,0-3.2-0.1-5.3c0-1.5,1.1-2.7,2.6-2.6c1.4,0,2.9,0.1,4.5,0.3c4.4,0.5,6.9,2.3,6.9,5c0,2.1-1.4,4-3.4,5.5
					c-0.7,0.5-0.8,1.4-0.3,2.1c1.5,1.7,4.1,4.6,5.6,6.2c0.5,0.6,0.5,1.5-0.1,2l-0.3,0.3c-0.6,0.5-1.5,0.5-2-0.2
					c-1.7-2-5.1-6.2-6.9-8.5c-0.5-0.7-0.4-1.6,0.4-2.1c1.6-1,3.5-2.5,3.5-4.8c0-1.3-0.9-3-5.8-3.3c-0.8-0.1-1.5,0.6-1.5,1.4
					L205.2,62.5z"/>
				<path d="M229.3,71.9c-0.8,0-1.4-0.7-1.4-1.5c0-1.2,0.1-2.7,0.1-2.9v-2.2c0-4-1.9-7.2-4.1-9.5c-1.3-1.4-4.5-1.7-4.5-3.2
					c0-0.6,0.7-1.3,0.7-1.3c0.4-0.7,1.3-1,2-0.6c1.4,0.9,2.8,2,3.4,2.7c1.6,1.7,3.6,4.1,4.3,6.7h0c1-2.6,2.2-4.4,4-6.3
					c1.9-2,6.1-6.6,6.9-2.2c0.1,0.5-0.2,1.1-0.7,1.4c-2,1.1-3.6,1.6-5.2,3.4c-2.3,2.4-3.7,5.6-3.7,8.9v2.8c0,0.3,0,1.4,0.1,2.3
					c0,0.8-0.6,1.5-1.4,1.5L229.3,71.9z"/>
				<path class="st3" d="M265.2,73.8c-0.4-0.7-0.8-1.5-1.2-2.4c-0.3-0.6-0.9-0.9-1.5-0.8c-2.6,0.6-5.4,0.5-8.3-1
					c-3.1-1.5-4.8-4.8-3.4-7.6c1.1-2.3,3.9-3.4,6.1-4c0.6-0.2,1-0.8,0.9-1.5c-0.3-1.2-0.3-2.2,0.2-3.2c1.4-2.8,6.1-3.7,10.3-3
					c0.7,0.1,1.3,0.8,1.1,1.5l0,0c-0.1,0.9-0.9,1.5-1.8,1.4c-2.3-0.1-5.7-1-6.6,0.9c-0.9,1.7,0.2,4.1,1.2,6.7
					c0.5,1.2,1.4,3.2,2.5,5.3c0.3,0.7,1.2,0.9,1.8,0.6c0.7-0.3,1.3-0.7,1.8-0.9c0.6-0.3,1.5-0.1,1.8,0.5l0,0
					c0.3,0.6,0.1,1.4-0.6,1.7c-0.6,0.3-1.2,0.6-1.9,0.8c-0.7,0.3-1,1.1-0.7,1.8c0.3,0.7,0.7,1.3,0.9,1.8c0.3,0.7,0.1,1.4-0.6,1.7
					l-0.2,0.1C266.3,74.7,265.5,74.5,265.2,73.8z M255.8,67.8c1.7,0.8,3.3,1.1,5.1,0.8c0.9-0.1,1.4-1,1-1.8
					c-1.1-2.1-2.1-4.3-2.7-5.9c-0.3-0.6-0.9-1-1.6-0.8c-1.6,0.5-3.2,1.3-3.9,2.9C252.9,64.6,253.5,66.7,255.8,67.8z"/>
				<path d="M308,66.2c0,1,0.1,2.8,0.1,4c0,0.7-0.4,1.2-1.1,1.4c-1.8,0.5-4.5,0.8-6.9,0.8c-8.3,0-13.5-4.6-13.5-10.6
					c0-4,4-11.9,17-15.7c0.5-0.2,1.1,0.2,1.2,0.7l0.2,0.8c0.2,0.7-0.3,1.5-1,1.7c-7.7,1.9-13.8,7.1-13.8,12.6c0,3.8,3.5,8,10.7,8
					c1,0,2-0.1,2.8-0.3c0.7-0.1,1.1-0.7,1.1-1.4l0-5c0-1.1-0.3-1.3-0.1-2.5c0.2-1.1,2.7-0.4,3.4,0c0.4,0.2,0,1.7,0,2.8V66.2z"/>
				<path d="M313.3,62.2c0-6.9,5.1-12.4,13-12.4c6.4,0,11.1,3.9,11.1,10.5c0,4.8-3.4,12.1-12.9,12.1
					C317.3,72.4,313.3,67.7,313.3,62.2z M334,60.5c0-5.5-3.9-8.3-8.2-8.3c-5.8,0-9.2,4.3-9.2,9.6c0,4.6,3.1,8.3,8.1,8.3
					C329.8,70,334,66.6,334,60.5z"/>
			</g>
		</g>
	</g>
</g>
</svg>
