<?xml version="1.0" encoding="utf-8"?>
<!-- Generator: Adobe Illustrator 21.0.0, SVG Export Plug-In . SVG Version: 6.00 Build 0)  -->
<svg version="1.1" id="圖層_1" xmlns="http://www.w3.org/2000/svg" xmlns:xlink="http://www.w3.org/1999/xlink" x="0px" y="0px"
	 viewBox="0 0 750 750" style="enable-background:new 0 0 750 750;" xml:space="preserve">
<style type="text/css">
	.st0 {
	  fill-rule: evenodd;
	  clip-rule: evenodd;
	  fill: #3A4750; }

	.st1 {
	  fill: none;
	  stroke: #3A4750;
	  stroke-width: 15;
	  stroke-miterlimit: 10; }

	.st2 {
	  fill: #BE3144; }

	.st4 {
	  fill: none;
	  stroke: #3A4750;
	  stroke-width: 30;
	  stroke-miterlimit: 10; }

	#tirecircle1 {
	  -webkit-animation: ani1 1s infinite;
	  animation: ani1 1s infinite; }
	#tirecircle2 {
	  -webkit-animation: ani1 1s infinite;
	  animation: ani1 1s infinite;
	  animation-delay: 0.2s; }

	#tirerotate {
	  -webkit-animation: ani2 1s infinite;
	  animation: ani2 1s infinite; }

	#tireskew {
	  left: 0px;
	  -webkit-animation: ani3 1s infinite;
	  animation: ani3 1s infinite; }

	@-webkit-keyframes ani1 {
	  0% {
	    -webkit-transform: translateX(0px) translateY(0px);
	    transform: translateX(0px) translateY(0px); }
	  20% {
	    -webkit-transform: translateX(5px) translateY(0px);
	    transform: translateX(5px) translateY(0px); }
	  40% {
	    -webkit-transform: translateX(5px) translateY(-5px);
	    transform: translateX(5px) translateY(-5px); }
	  60% {
	    -webkit-transform: translateX(0px) translateY(-5px);
	    transform: translateX(0px) translateY(-5px); }
	  80% {
	    -webkit-transform: translateX(0px) translateY(0px);
	    transform: translateX(0px) translateY(0px); } }

	@keyframes ani1 {
	  0% {
	    -webkit-transform: translateX(0px) translateY(0px);
	    transform: translateX(0px) translateY(0px); }
	  20% {
	    -webkit-transform: translateX(5px) translateY(0px);
	    transform: translateX(5px) translateY(0px); }
	  40% {
	    -webkit-transform: translateX(5px) translateY(-5px);
	    transform: translateX(5px) translateY(-5px); }
	  60% {
	    -webkit-transform: translateX(0px) translateY(-5px);
	    transform: translateX(0px) translateY(-5px); }
	  80% {
	    -webkit-transform: translateX(0px) translateY(0px);
	    transform: translateX(0px) translateY(0px); } }

	@-webkit-keyframes ani2 {
	  0% {
	    -webkit-transform: rotate(0deg);
	    transform: rotate(0deg);
	    -webkit-transform-origin: 0% 100%;
	    transform-origin: 0% 100%; }
	  50% {
	    -webkit-transform: rotate(2deg);
	    transform: rotate(2deg);
	    -webkit-transform-origin: 0% 100%;
	    transform-origin: 0% 100%; }
	  100% {
	    -webkit-transform: rotate(0deg);
	    transform: rotate(0deg);
	    -webkit-transform-origin: 0% 100%;
	    transform-origin: 0% 100%; } }

	@keyframes ani2 {
	  0% {
	    -webkit-transform: rotate(0deg);
	    transform: rotate(0deg);
	    -webkit-transform-origin: 0% 100%;
	    transform-origin: 0% 100%; }
	  50% {
	    -webkit-transform: rotate(2deg);
	    transform: rotate(2deg);
	    -webkit-transform-origin: 0% 100%;
	    transform-origin: 0% 100%; }
	  100% {
	    -webkit-transform: rotate(0deg);
	    transform: rotate(0deg);
	    -webkit-transform-origin: 0% 100%;
	    transform-origin: 0% 100%; } }

	@-webkit-keyframes ani3 {
	  0% {
	    -webkit-transform: skew(1deg);
	    transform: skew(1deg);
	    -webkit-transform-origin: 0% 100%;
	    transform-origin: 0% 100%; }
	  50% {
	    -webkit-transform: skew(-1deg);
	    transform: skew(-1deg);
	    -webkit-transform-origin: 0% 100%;
	    transform-origin: 0% 100%; }
	  100% {
	    -webkit-transform: skew(1deg);
	    transform: skew(1deg);
	    -webkit-transform-origin: 0% 100%;
	    transform-origin: 0% 100%; } }

	@keyframes ani3 {
	  0% {
	    -webkit-transform: skew(1deg);
	    transform: skew(1deg);
	    -webkit-transform-origin: 0% 100%;
	    transform-origin: 0% 100%; }
	  50% {
	    -webkit-transform: skew(-1deg);
	    transform: skew(-1deg);
	    -webkit-transform-origin: 0% 100%;
	    transform-origin: 0% 100%; }
	  100% {
	    -webkit-transform: skew(1deg);
	    transform: skew(1deg);
	    -webkit-transform-origin: 0% 100%;
	    transform-origin: 0% 100%; } }
</style>
<g>
	<g>
		<g id="tirerotate">
			<path class="st0" d="M244.3,499.8l-5.1-11.7c0,0-0.3,0.2-0.8,0.3c-0.5,0.2-1.3,0.5-2.1,0.8c-1.8,0.6-4.1,1.6-6.6,2.1
				c-1.2,0.3-2.4,0.6-3.6,0.9c-1.1,0.3-2.2,0.4-3.2,0.5c-1.9,0.3-3.1,0.5-3.1,0.5l1.5,12.7c0,0,1.5-0.2,3.7-0.6
				c1.1-0.2,2.4-0.3,3.8-0.6c1.4-0.3,2.8-0.7,4.2-1.1c2.9-0.6,5.7-1.7,7.8-2.5c1-0.4,1.9-0.7,2.5-0.9
				C243.9,500,244.3,499.8,244.3,499.8"/>
			<path class="st0" d="M277.3,473.6l-10.2-7.6c0,0-0.7,1-1.9,2.5c-1.3,1.4-2.9,3.3-4.6,5.1c-1.9,1.7-3.7,3.4-5.1,4.6
				c-1.5,1.1-2.5,1.9-2.5,1.9l7.6,10.2c0,0,1.2-0.9,3-2.2c1.7-1.4,3.9-3.5,6.1-5.5c2-2.2,4-4.4,5.5-6.1
				C276.4,474.8,277.3,473.6,277.3,473.6"/>
			<path class="st0" d="M293,434.5l-12.7-1.5c0,0-0.2,1.2-0.5,3.1c-0.2,0.9-0.2,2-0.5,3.2c-0.3,1.1-0.6,2.4-0.9,3.6
				c-0.5,2.5-1.5,4.8-2.1,6.6c-0.3,0.9-0.6,1.6-0.8,2.1c-0.2,0.5-0.4,0.8-0.4,0.8l11.7,5.1c0,0,0.2-0.3,0.4-0.9
				c0.2-0.6,0.5-1.5,0.9-2.5c0.7-2.1,1.9-4.9,2.5-7.8c0.4-1.4,0.7-2.9,1.1-4.2c0.3-1.4,0.4-2.7,0.6-3.8
				C292.7,436,293,434.5,293,434.5"/>
			<path class="st0" d="M136.9,457.2l11.7-5.1c0,0-0.2-0.3-0.3-0.8c-0.2-0.5-0.5-1.3-0.8-2.1c-0.6-1.8-1.6-4.1-2.1-6.6
				c-0.3-1.2-0.6-2.4-0.9-3.6c-0.3-1.1-0.4-2.2-0.5-3.2c-0.3-1.9-0.5-3.1-0.5-3.1l-12.7,1.5c0,0,0.2,1.5,0.6,3.7
				c0.2,1.1,0.3,2.4,0.6,3.8c0.3,1.4,0.7,2.8,1.1,4.2c0.6,2.9,1.7,5.7,2.5,7.8c0.4,1,0.7,1.9,0.9,2.5
				C136.7,456.9,136.9,457.2,136.9,457.2"/>
			<path class="st0" d="M163.1,490.3l7.6-10.2c0,0-1-0.7-2.5-1.9c-1.4-1.3-3.3-2.9-5.1-4.6c-1.7-1.9-3.4-3.7-4.6-5.1
				c-1.1-1.5-1.9-2.5-1.9-2.5l-10.2,7.6c0,0,0.9,1.2,2.2,3c1.4,1.7,3.5,3.9,5.5,6.1c2.2,2,4.4,4,6.1,5.5
				C161.9,489.4,163.1,490.3,163.1,490.3"/>
			<path class="st0" d="M202.2,505.9l1.5-12.7c0,0-1.2-0.2-3.1-0.5c-0.9-0.2-2-0.2-3.2-0.5c-1.1-0.3-2.4-0.6-3.6-0.9
				c-2.5-0.5-4.8-1.5-6.6-2.1c-0.9-0.3-1.6-0.6-2.1-0.8c-0.5-0.2-0.8-0.4-0.8-0.4l-5.1,11.7c0,0,0.3,0.2,0.9,0.4
				c0.6,0.2,1.5,0.5,2.5,0.9c2.1,0.7,4.9,1.9,7.8,2.5c1.4,0.4,2.9,0.7,4.2,1.1c1.4,0.3,2.7,0.4,3.8,0.6
				C200.7,505.7,202.2,505.9,202.2,505.9"/>
			<path class="st0" d="M179.5,349.8l5.1,11.7c0,0,0.3-0.2,0.8-0.3c0.5-0.2,1.3-0.5,2.1-0.8c1.8-0.6,4.1-1.6,6.6-2.1
				c1.2-0.3,2.4-0.6,3.6-0.9c1.1-0.3,2.2-0.4,3.2-0.5c1.9-0.3,3.1-0.5,3.1-0.5l-1.5-12.7c0,0-1.5,0.2-3.7,0.6
				c-1.1,0.2-2.4,0.3-3.8,0.6c-1.4,0.3-2.8,0.7-4.2,1.1c-2.9,0.6-5.7,1.7-7.8,2.5c-1,0.4-1.9,0.7-2.5,0.9
				C179.8,349.6,179.5,349.8,179.5,349.8"/>
			<path class="st0" d="M146.4,376.1l10.2,7.6c0,0,0.7-1,1.9-2.5c1.3-1.4,2.9-3.3,4.6-5.1c1.9-1.7,3.7-3.4,5.1-4.6
				c1.5-1.1,2.5-1.9,2.5-1.9l-7.6-10.2c0,0-1.2,0.9-3,2.2c-1.7,1.4-3.9,3.5-6.1,5.5c-2,2.2-4,4.4-5.5,6.1
				C147.3,374.9,146.4,376.1,146.4,376.1"/>
			<path class="st0" d="M130.8,415.2l12.7,1.5c0,0,0.2-1.2,0.5-3.1c0.2-0.9,0.2-2,0.5-3.2c0.3-1.1,0.6-2.4,0.9-3.6
				c0.5-2.5,1.5-4.8,2.1-6.6c0.3-0.9,0.6-1.6,0.8-2.1c0.2-0.5,0.4-0.8,0.4-0.8l-11.7-5.1c0,0-0.2,0.3-0.4,0.9
				c-0.2,0.6-0.5,1.5-0.9,2.5c-0.7,2.1-1.9,4.9-2.5,7.8c-0.4,1.4-0.7,2.9-1.1,4.2c-0.3,1.4-0.4,2.7-0.6,3.8
				C131,413.7,130.8,415.2,130.8,415.2"/>
			<path class="st0" d="M286.9,392.5l-11.7,5.1c0,0,0.2,0.3,0.3,0.8c0.2,0.5,0.5,1.3,0.8,2.1c0.6,1.8,1.6,4.1,2.1,6.6
				c0.3,1.2,0.6,2.4,0.9,3.6c0.3,1.1,0.4,2.2,0.5,3.2c0.3,1.9,0.5,3.1,0.5,3.1l12.7-1.5c0,0-0.2-1.5-0.6-3.7
				c-0.2-1.1-0.3-2.4-0.6-3.8c-0.3-1.4-0.7-2.8-1.1-4.2c-0.6-2.9-1.7-5.7-2.5-7.8c-0.4-1-0.7-1.9-0.9-2.5
				C287.1,392.8,286.9,392.5,286.9,392.5"/>
			<path class="st0" d="M260.6,359.4l-7.6,10.2c0,0,1,0.7,2.5,1.9c1.4,1.3,3.3,2.9,5.1,4.6c1.7,1.9,3.4,3.7,4.6,5.1
				c1.1,1.5,1.9,2.5,1.9,2.5l10.2-7.6c0,0-0.9-1.2-2.2-3c-1.4-1.7-3.5-3.9-5.5-6.1c-2.2-2-4.4-4-6.1-5.5
				C261.8,360.3,260.6,359.4,260.6,359.4"/>
			<path class="st0" d="M221.6,343.8l-1.5,12.7c0,0,1.2,0.2,3.1,0.5c0.9,0.2,2,0.2,3.2,0.5c1.1,0.3,2.4,0.6,3.6,0.9
				c2.5,0.5,4.8,1.5,6.6,2.1c0.9,0.3,1.6,0.6,2.1,0.8c0.5,0.2,0.8,0.4,0.8,0.4l5.1-11.7c0,0-0.3-0.2-0.9-0.4
				c-0.6-0.2-1.5-0.5-2.5-0.9c-2.1-0.7-4.9-1.9-7.8-2.5c-1.4-0.4-2.9-0.7-4.2-1.1c-1.4-0.3-2.7-0.4-3.8-0.6
				C223,344,221.6,343.8,221.6,343.8"/>
		</g>
		<g id="tirerotate">
			<circle class="st4" cx="211.9" cy="424.8" r="56.3"/>
		</g>
		<g id="tirerotate">
			<path class="st0" d="M560.4,499.8l-5.1-11.7c0,0-0.3,0.2-0.8,0.3c-0.5,0.2-1.3,0.5-2.1,0.8c-1.8,0.6-4.1,1.6-6.6,2.1
				c-1.2,0.3-2.4,0.6-3.6,0.9c-1.1,0.3-2.2,0.4-3.2,0.5c-1.9,0.3-3.1,0.5-3.1,0.5l1.5,12.7c0,0,1.5-0.2,3.7-0.6
				c1.1-0.2,2.4-0.3,3.8-0.6c1.4-0.3,2.8-0.7,4.2-1.1c2.9-0.6,5.7-1.7,7.8-2.5c1-0.4,1.9-0.7,2.5-0.9
				C560.1,500,560.4,499.8,560.4,499.8"/>
			<path class="st0" d="M593.5,473.6l-10.2-7.6c0,0-0.7,1-1.9,2.5c-1.3,1.4-2.9,3.3-4.6,5.1c-1.9,1.7-3.7,3.4-5.1,4.6
				c-1.5,1.1-2.5,1.9-2.5,1.9l7.6,10.2c0,0,1.2-0.9,3-2.2c1.7-1.4,3.9-3.5,6.1-5.5c2-2.2,4-4.4,5.5-6.1
				C592.6,474.8,593.5,473.6,593.5,473.6"/>
			<path class="st0" d="M609.1,434.5l-12.7-1.5c0,0-0.2,1.2-0.5,3.1c-0.2,0.9-0.2,2-0.5,3.2c-0.3,1.1-0.6,2.4-0.9,3.6
				c-0.5,2.5-1.5,4.8-2.1,6.6c-0.3,0.9-0.6,1.6-0.8,2.1c-0.2,0.5-0.4,0.8-0.4,0.8l11.7,5.1c0,0,0.2-0.3,0.4-0.9
				c0.2-0.6,0.5-1.5,0.9-2.5c0.7-2.1,1.9-4.9,2.5-7.8c0.4-1.4,0.7-2.9,1.1-4.2c0.3-1.4,0.4-2.7,0.6-3.8L609.1,434.5z"/>
			<path class="st0" d="M453,457.2l11.7-5.1c0,0-0.2-0.3-0.3-0.8c-0.2-0.5-0.5-1.3-0.8-2.1c-0.6-1.8-1.6-4.1-2.1-6.6
				c-0.3-1.2-0.6-2.4-0.9-3.6c-0.3-1.1-0.4-2.2-0.5-3.2c-0.3-1.9-0.5-3.1-0.5-3.1l-12.7,1.5c0,0,0.2,1.5,0.6,3.7
				c0.2,1.1,0.3,2.4,0.6,3.8c0.3,1.4,0.7,2.8,1.1,4.2c0.6,2.9,1.7,5.7,2.5,7.8c0.4,1,0.7,1.9,0.9,2.5
				C452.8,456.9,453,457.2,453,457.2"/>
			<path class="st0" d="M479.3,490.3l7.6-10.2c0,0-1-0.7-2.5-1.9c-1.4-1.3-3.3-2.9-5.1-4.6c-1.7-1.9-3.4-3.7-4.6-5.1
				c-1.1-1.5-1.9-2.5-1.9-2.5l-10.2,7.6c0,0,0.9,1.2,2.2,3c1.4,1.7,3.5,3.9,5.5,6.1c2.2,2,4.4,4,6.1,5.5
				C478.1,489.4,479.3,490.3,479.3,490.3"/>
			<path class="st0" d="M518.3,505.9l1.5-12.7c0,0-1.2-0.2-3.1-0.5c-0.9-0.2-2-0.2-3.2-0.5c-1.1-0.3-2.4-0.6-3.6-0.9
				c-2.5-0.5-4.8-1.5-6.6-2.1c-0.9-0.3-1.6-0.6-2.1-0.8c-0.5-0.2-0.8-0.4-0.8-0.4l-5.1,11.7c0,0,0.3,0.2,0.9,0.4
				c0.6,0.2,1.5,0.5,2.5,0.9c2.1,0.7,4.9,1.9,7.8,2.5c1.4,0.4,2.9,0.7,4.2,1.1c1.4,0.3,2.7,0.4,3.8,0.6
				C516.9,505.7,518.3,505.9,518.3,505.9"/>
			<path class="st0" d="M495.6,349.8l5.1,11.7c0,0,0.3-0.2,0.8-0.3c0.5-0.2,1.3-0.5,2.1-0.8c1.8-0.6,4.1-1.6,6.6-2.1
				c1.2-0.3,2.4-0.6,3.6-0.9c1.1-0.3,2.2-0.4,3.2-0.5c1.9-0.3,3.1-0.5,3.1-0.5l-1.5-12.7c0,0-1.5,0.2-3.7,0.6
				c-1.1,0.2-2.4,0.3-3.8,0.6c-1.4,0.3-2.8,0.7-4.2,1.1c-2.9,0.6-5.7,1.7-7.8,2.5c-1,0.4-1.9,0.7-2.5,0.9
				C496,349.6,495.6,349.8,495.6,349.8"/>
			<path class="st0" d="M462.6,376.1l10.2,7.6c0,0,0.7-1,1.9-2.5c1.3-1.4,2.9-3.3,4.6-5.1c1.9-1.7,3.7-3.4,5.1-4.6
				c1.5-1.1,2.5-1.9,2.5-1.9l-7.6-10.2c0,0-1.2,0.9-3,2.2c-1.7,1.4-3.9,3.5-6.1,5.5c-2,2.2-4,4.4-5.5,6.1
				C463.5,374.9,462.6,376.1,462.6,376.1"/>
			<path class="st0" d="M446.9,415.2l12.7,1.5l0.5-3.1c0.2-0.9,0.2-2,0.5-3.2c0.3-1.1,0.6-2.4,0.9-3.6c0.5-2.5,1.5-4.8,2.1-6.6
				c0.3-0.9,0.6-1.6,0.8-2.1c0.2-0.5,0.4-0.8,0.4-0.8l-11.7-5.1c0,0-0.2,0.3-0.4,0.9c-0.2,0.6-0.5,1.5-0.9,2.5
				c-0.7,2.1-1.9,4.9-2.5,7.8c-0.4,1.4-0.7,2.9-1.1,4.2c-0.3,1.4-0.4,2.7-0.6,3.8L446.9,415.2z"/>
			<path class="st0" d="M603,392.5l-11.7,5.1c0,0,0.2,0.3,0.3,0.8c0.2,0.5,0.5,1.3,0.8,2.1c0.6,1.8,1.6,4.1,2.1,6.6
				c0.3,1.2,0.6,2.4,0.9,3.6c0.3,1.1,0.4,2.2,0.5,3.2c0.3,1.9,0.5,3.1,0.5,3.1l12.7-1.5c0,0-0.2-1.5-0.6-3.7
				c-0.2-1.1-0.3-2.4-0.6-3.8c-0.3-1.4-0.7-2.8-1.1-4.2c-0.6-2.9-1.7-5.7-2.5-7.8c-0.4-1-0.7-1.9-0.9-2.5
				C603.2,392.8,603,392.5,603,392.5"/>
			<path class="st0" d="M576.8,359.4l-7.6,10.2c0,0,1,0.7,2.5,1.9c1.4,1.3,3.3,2.9,5.1,4.6c1.7,1.9,3.4,3.7,4.6,5.1
				c1.1,1.5,1.9,2.5,1.9,2.5l10.2-7.6c0,0-0.9-1.2-2.2-3c-1.4-1.7-3.5-3.9-5.5-6.1c-2.2-2-4.4-4-6.1-5.5
				C578,360.3,576.8,359.4,576.8,359.4"/>
			<path class="st0" d="M537.7,343.8l-1.5,12.7c0,0,1.2,0.2,3.1,0.5c0.9,0.2,2,0.2,3.2,0.5c1.1,0.3,2.4,0.6,3.6,0.9
				c2.5,0.5,4.8,1.5,6.6,2.1c0.9,0.3,1.6,0.6,2.1,0.8c0.5,0.2,0.8,0.4,0.8,0.4l5.1-11.7c0,0-0.3-0.2-0.9-0.4
				c-0.6-0.2-1.5-0.5-2.5-0.9c-2.1-0.7-4.9-1.9-7.8-2.5c-1.4-0.4-2.9-0.7-4.2-1.1c-1.4-0.3-2.7-0.4-3.8-0.6
				C539.2,344,537.7,343.8,537.7,343.8"/>
		</g>
		<g id="tirerotate">
			<circle class="st4" cx="528" cy="424.8" r="56.3"/>
		</g>
		<g id="tirecircle1">
			<path class="st2" d="M256.2,320.9l79,80.1c0.9,0.9,2.2,1.5,3.5,1.5h75c1.3,0,2.6-0.5,3.5-1.5l79.9-80.8c0.9-0.9,2.2-1.5,3.5-1.5
				h87.2c2.7,0,4.9-2.2,4.9-4.9v-67.9c0-2.7-2.2-4.9-4.9-4.9h-57.6c-1.3,0-2.6-0.5-3.5-1.5L488,200.3c-0.9-0.9-2.2-1.5-3.5-1.5h-50.8
				c-2.7,0-4.9,2.2-4.9,4.9v0.1c0,2.7,2.2,4.9,4.9,4.9h34.7c1.3,0,2.6,0.5,3.5,1.5l23.7,24.2c2.6,2.7,1.4,7.1-2.1,8.2l-235.2,70
				C254.7,313.7,253.6,318.2,256.2,320.9"/>
		</g>
		<g id="tirecircle2">
			<path class="st2" d="M143.7,247.1v51.5c0,2.7,2.2,5,5,5h102.4c0.5-0.1,0.9-0.1,1.4-0.2l120.7-34.7c5.5-1.6,4.5-9.6-1.2-9.8
			l-115.3-3.2c-2.7-0.1-4.8-2.3-4.8-5v-3.6c0-2.8-2.2-5-5-5h-98.2C146,242.1,143.7,244.3,143.7,247.1"/>
		</g>
	</g>
</g>
<g>
	<g>
		<defs>
			<rect id="SVGID_1_" x="704.9" y="74.5" width="847.6" height="600.9"/>
		</defs>
		<clipPath id="SVGID_2_">
			<use xlink:href="#SVGID_1_"  style="overflow:visible;"/>
		</clipPath>
	</g>
</g>
</svg>
