<?xml version="1.0" encoding="utf-8"?>
<!-- Generator: Adobe Illustrator 21.0.0, SVG Export Plug-In . SVG Version: 6.00 Build 0)  -->
<svg version="1.1" id="圖層_1" xmlns="http://www.w3.org/2000/svg" xmlns:xlink="http://www.w3.org/1999/xlink" x="0px" y="0px"
	 viewBox="0 0 750 750" style="enable-background:new 0 0 750 750;" xml:space="preserve">
<style type="text/css">
	.st0 {
	  fill-rule: evenodd;
	  clip-rule: evenodd;
	  fill: #3A4750; }

	*.st1 {
	  fill: none;
	  stroke: #3A4750;
	  stroke-width: 15;
	  stroke-miterlimit: 10;
	  /* tire circle */ }

	.st2 {
	  fill: #176D81; }

	.st3 {
	  fill: #EEEEEE; }

	.st4 {
	  fill: none;
	  stroke: #231815;
	  stroke-width: 3;
	  stroke-miterlimit: 10; }

	.st5 {
	  fill: none;
	  stroke: pink;
	  stroke-width: 5;
	  stroke-miterlimit: 10; }

	.st6 {
	  fill: none;
	  stroke: #231815;
	  stroke-width: 3;
	  stroke-miterlimit: 10; }

	#tirecircle {
	  -webkit-animation: ani1 1s infinite;
	  animation: ani1 1s infinite; }

	#tirerotate {
	  -webkit-animation: ani2 1s infinite;
	  animation: ani2 1s infinite; }

	#tireskew {
	  left: 0px;
	  -webkit-animation: ani3 1s infinite;
	  animation: ani3 1s infinite; }

	@-webkit-keyframes ani1 {
	  0% {
	    -webkit-transform: translateX(0px) translateY(0px);
	    transform: translateX(0px) translateY(0px); }
	  20% {
	    -webkit-transform: translateX(5px) translateY(0px);
	    transform: translateX(5px) translateY(0px); }
	  40% {
	    -webkit-transform: translateX(5px) translateY(-5px);
	    transform: translateX(5px) translateY(-5px); }
	  60% {
	    -webkit-transform: translateX(0px) translateY(-5px);
	    transform: translateX(0px) translateY(-5px); }
	  80% {
	    -webkit-transform: translateX(0px) translateY(0px);
	    transform: translateX(0px) translateY(0px); } }

	@keyframes ani1 {
	  0% {
	    -webkit-transform: translateX(0px) translateY(0px);
	    transform: translateX(0px) translateY(0px); }
	  20% {
	    -webkit-transform: translateX(5px) translateY(0px);
	    transform: translateX(5px) translateY(0px); }
	  40% {
	    -webkit-transform: translateX(5px) translateY(-5px);
	    transform: translateX(5px) translateY(-5px); }
	  60% {
	    -webkit-transform: translateX(0px) translateY(-5px);
	    transform: translateX(0px) translateY(-5px); }
	  80% {
	    -webkit-transform: translateX(0px) translateY(0px);
	    transform: translateX(0px) translateY(0px); } }

	@-webkit-keyframes ani2 {
	  0% {
	    -webkit-transform: rotate(0deg);
	    transform: rotate(0deg);
	    -webkit-transform-origin: 0% 100%;
	    transform-origin: 0% 100%; }
	  50% {
	    -webkit-transform: rotate(2deg);
	    transform: rotate(2deg);
	    -webkit-transform-origin: 0% 100%;
	    transform-origin: 0% 100%; }
	  100% {
	    -webkit-transform: rotate(0deg);
	    transform: rotate(0deg);
	    -webkit-transform-origin: 0% 100%;
	    transform-origin: 0% 100%; } }

	@keyframes ani2 {
	  0% {
	    -webkit-transform: rotate(0deg);
	    transform: rotate(0deg);
	    -webkit-transform-origin: 0% 100%;
	    transform-origin: 0% 100%; }
	  50% {
	    -webkit-transform: rotate(2deg);
	    transform: rotate(2deg);
	    -webkit-transform-origin: 0% 100%;
	    transform-origin: 0% 100%; }
	  100% {
	    -webkit-transform: rotate(0deg);
	    transform: rotate(0deg);
	    -webkit-transform-origin: 0% 100%;
	    transform-origin: 0% 100%; } }

	@-webkit-keyframes ani3 {
	  0% {
	    -webkit-transform: skew(1deg);
	    transform: skew(1deg);
	    -webkit-transform-origin: 0% 100%;
	    transform-origin: 0% 100%; }
	  50% {
	    -webkit-transform: skew(-1deg);
	    transform: skew(-1deg);
	    -webkit-transform-origin: 0% 100%;
	    transform-origin: 0% 100%; }
	  100% {
	    -webkit-transform: skew(1deg);
	    transform: skew(1deg);
	    -webkit-transform-origin: 0% 100%;
	    transform-origin: 0% 100%; } }

	@keyframes ani3 {
	  0% {
	    -webkit-transform: skew(1deg);
	    transform: skew(1deg);
	    -webkit-transform-origin: 0% 100%;
	    transform-origin: 0% 100%; }
	  50% {
	    -webkit-transform: skew(-1deg);
	    transform: skew(-1deg);
	    -webkit-transform-origin: 0% 100%;
	    transform-origin: 0% 100%; }
	  100% {
	    -webkit-transform: skew(1deg);
	    transform: skew(1deg);
	    -webkit-transform-origin: 0% 100%;
	    transform-origin: 0% 100%; } }
</style>
<g>
	<g>
		<g id="tirerotate">
			<path class="st0" d="M222.3,531.2l-0.3-13.9c0,0-0.3,0-0.8,0l-0.1,0l-0.1,0h0c0.9,0,0.3,0,0.5,0h0l0,0h0l-0.3,0
				c-0.2,0-0.4,0-0.6,0c-0.4,0-0.9,0-1.4-0.1c-1.1-0.1-2.3-0.1-3.6-0.2c-1-0.2-2.1-0.3-3.1-0.5c-1-0.1-2.2-0.4-3.3-0.7
				c-1.1-0.3-2.1-0.5-2.9-0.8c-1.7-0.6-2.8-1-2.8-1l-5,13c0,0,1.4,0.5,3.6,1.3c1.1,0.4,2.4,0.6,3.8,1c1.4,0.4,2.8,0.8,4.4,1
				c1.6,0.2,3.1,0.5,4.6,0.7c1.3,0.1,2.5,0.1,3.6,0.2c0.5,0,1,0,1.4,0.1c0.2,0,0.4,0,0.6,0l0.3,0l0.3,0l0.1,0l0.1,0
				C221.9,531.2,222.3,531.2,222.3,531.2"/>
			<path class="st0" d="M262.3,515.7l-9.1-10.5c0,0-0.8,0.9-2.3,1.9c-0.7,0.5-1.5,1.2-2.4,1.8c-1,0.6-2,1.2-3,1.8
				c-1,0.7-2.1,1.1-3.1,1.6c-1,0.5-1.9,1-2.8,1.3c-1.7,0.6-2.8,1-2.8,1l4.5,13.2c0,0,1.4-0.5,3.6-1.3c1.1-0.4,2.2-1,3.5-1.6
				c1.3-0.6,2.7-1.2,4-2.1c1.3-0.8,2.6-1.6,3.8-2.3c1.1-0.9,2.2-1.6,3.1-2.3C261.2,516.8,262.3,515.7,262.3,515.7"/>
			<path class="st0" d="M283,478.3l-13.8-1.9c0,0,0,0.3-0.1,0.7c-0.1,0.5-0.1,1.1-0.4,2c-0.5,1.7-0.9,4-1.9,6.2
				c-0.7,2.3-1.9,4.3-2.6,6c-0.8,1.6-1.5,2.6-1.5,2.6l11.9,7.2c0,0,0.8-1.3,1.9-3.3c1-2.1,2.4-4.8,3.4-7.7c1.2-2.8,1.8-5.8,2.4-8
				c0.3-1.1,0.4-2.1,0.5-2.8C282.9,478.7,283,478.3,283,478.3"/>
			<path class="st0" d="M166.1,438.2l12.2,6.7c0,0,0.6-1,1.5-2.5c0.4-0.8,1-1.6,1.7-2.5c0.7-0.9,1.3-1.9,2.1-2.8
				c1.6-1.8,3.2-3.5,4.6-4.7c0.7-0.6,1.2-1.1,1.6-1.5c0.4-0.4,0.6-0.5,0.6-0.5l-8.7-10.8c0,0-0.3,0.2-0.8,0.7c-0.5,0.4-1.2,1.1-2,1.9
				c-1.8,1.5-3.8,3.7-5.8,6c-1,1.2-1.9,2.4-2.7,3.5c-0.9,1.1-1.6,2.2-2.2,3.2C166.9,436.9,166.1,438.2,166.1,438.2"/>
			<path class="st0" d="M159.5,480.6l13.6-2.7c0,0-0.2-1.2-0.4-2.9c-0.2-0.9-0.3-1.9-0.3-3c0-0.6-0.1-1.1-0.1-1.7l0-0.9l0-0.4l0-0.2
				l0-0.1l0-0.1v0c0,0.9,0,0.2,0,0.4v0l0,0c0.1-1.4,0.1-2.8,0.2-4.1c0-0.6,0.1-1.3,0.1-1.9c0.1-0.5,0.2-0.9,0.2-1.3
				c0.2-1.6,0.4-2.7,0.4-2.7l-13.7-2.6c0,0-0.2,1.6-0.6,3.9c-0.1,0.6-0.2,1.2-0.3,1.9c-0.1,0.6-0.1,1.2-0.1,1.9
				c-0.1,1.3-0.1,2.7-0.2,4.1l0,0.4l0,0.1l0,0.3l0,0.6l0.1,1.1c0,0.7,0.1,1.5,0.1,2.2c0,1.4,0.2,2.8,0.4,3.9
				C159.3,479,159.5,480.6,159.5,480.6"/>
			<path class="st0" d="M181.5,517.2l8.8-10.8c0,0-3.7-3-6.8-6.7c-1.4-1.9-3-3.7-3.8-5.3c-0.9-1.5-1.5-2.5-1.5-2.5l-12.2,6.7
				c0,0,0.8,1.3,2,3.3c1.1,2,3.1,4.4,4.9,6.8C176.8,513.3,181.5,517.2,181.5,517.2"/>
			<path class="st0" d="M274.7,436.1l-11.9,7.2c0,0,0.2,0.3,0.4,0.7c0.2,0.5,0.7,1,1.1,1.9c0.7,1.6,1.9,3.7,2.6,6
				c0.9,2.2,1.4,4.5,1.8,6.2c0.3,0.8,0.3,1.6,0.4,2.1c0.1,0.5,0.1,0.8,0.1,0.8l13.7-2.1c0,0-0.1-0.4-0.2-1c-0.1-0.7-0.2-1.6-0.5-2.7
				c-0.6-2.2-1.2-5.2-2.4-8c-0.9-2.9-2.4-5.6-3.4-7.7c-0.5-1.1-1-1.8-1.4-2.4C274.9,436.4,274.7,436.1,274.7,436.1"/>
			<path class="st0" d="M241.4,409.2l-4.5,13.2c0,0,1.1,0.4,2.8,1c0.8,0.3,1.7,0.8,2.7,1.3c1,0.5,2.1,1,3.1,1.6c1,0.6,2,1.2,3,1.8
				c0.9,0.7,1.7,1.3,2.4,1.8c1.5,1,2.3,1.9,2.3,1.9l9.2-10.5c0,0-1.1-1.1-2.9-2.4c-0.9-0.7-2-1.5-3.1-2.3c-1.2-0.7-2.5-1.5-3.8-2.3
				c-1.3-0.8-2.7-1.5-4-2.1c-1.3-0.6-2.5-1.2-3.5-1.6C242.8,409.7,241.4,409.2,241.4,409.2"/>
			<path class="st0" d="M198.7,409.9l5,13c0,0,1.1-0.4,2.8-1c0.9-0.2,1.9-0.5,2.9-0.8c1.1-0.3,2.2-0.6,3.4-0.7
				c1.2-0.2,2.3-0.4,3.4-0.5c1.1-0.1,2.2-0.1,3-0.1c0.4,0,0.9,0,1.2-0.1c0.2,0,0.3,0,0.5,0l0.1,0h0h0c0.4,0-0.6,0-0.5,0h0l0,0l0.1,0
				l0.2,0c0.6,0,1,0,1,0l0.7-13.9c0,0-0.3,0-1,0l-0.2,0l-0.1,0l-0.4,0c-0.2,0-0.4,0-0.6,0c-0.5,0-1,0-1.6,0.1
				c-1.1,0.1-2.5,0.1-3.9,0.2c-1.4,0.2-2.9,0.4-4.4,0.7c-1.5,0.2-3,0.5-4.4,0.9c-1.4,0.4-2.7,0.7-3.8,1
				C200.1,409.4,198.7,409.9,198.7,409.9"/>
		</g>
		<g id="tirerotate">
			<circle class="st1" cx="221.1" cy="468.5" r="42.2"/>
		</g>
		<g id="tirerotate">
			<path class="st0" d="M568.6,531.2l-0.3-13.9c0,0-0.3,0-0.8,0l-0.1,0l-0.1,0h0c0.9,0,0.3,0,0.5,0h0l0,0h0l-0.3,0
				c-0.2,0-0.4,0-0.6,0c-0.4,0-0.9,0-1.4-0.1c-1.1-0.1-2.3-0.1-3.6-0.2c-1-0.2-2.1-0.3-3.1-0.5c-1-0.1-2.2-0.4-3.3-0.7
				c-1.1-0.3-2.1-0.5-2.9-0.8c-1.7-0.6-2.8-1-2.8-1l-5,13c0,0,1.4,0.5,3.6,1.3c1.1,0.4,2.4,0.6,3.8,1c1.4,0.4,2.8,0.8,4.4,1
				c1.6,0.2,3.1,0.5,4.6,0.7c1.3,0.1,2.5,0.1,3.6,0.2c0.5,0,1,0,1.4,0.1c0.2,0,0.4,0,0.6,0l0.3,0l0.3,0l0.1,0l0.1,0
				C568.2,531.2,568.6,531.2,568.6,531.2"/>
			<path class="st0" d="M608.5,515.7l-9.1-10.5c0,0-0.8,0.9-2.3,1.9c-0.7,0.5-1.5,1.2-2.4,1.8c-1,0.6-2,1.2-3,1.8
				c-1,0.7-2.1,1.1-3.1,1.6c-1,0.5-1.9,1-2.8,1.3c-1.7,0.6-2.8,1-2.8,1l4.5,13.2c0,0,1.4-0.5,3.6-1.3c1.1-0.4,2.2-1,3.5-1.6
				c1.3-0.6,2.7-1.2,4-2.1c1.3-0.8,2.6-1.6,3.8-2.3c1.1-0.9,2.2-1.6,3.1-2.3C607.5,516.8,608.5,515.7,608.5,515.7"/>
			<path class="st0" d="M629.2,478.3l-13.8-1.9c0,0,0,0.3-0.1,0.7c-0.1,0.5-0.1,1.1-0.4,2c-0.5,1.7-0.9,4-1.9,6.2
				c-0.7,2.3-1.9,4.3-2.6,6c-0.8,1.6-1.5,2.6-1.5,2.6l11.9,7.2c0,0,0.8-1.3,1.9-3.3c1-2.1,2.4-4.8,3.4-7.7c1.2-2.8,1.8-5.8,2.4-8
				c0.3-1.1,0.4-2.1,0.5-2.8C629.2,478.7,629.2,478.3,629.2,478.3"/>
			<path class="st0" d="M512.4,438.2l12.2,6.7c0,0,0.6-1,1.5-2.5c0.4-0.8,1-1.6,1.7-2.5c0.7-0.9,1.3-1.9,2.1-2.8
				c1.6-1.8,3.2-3.5,4.6-4.7c0.7-0.6,1.2-1.1,1.6-1.5c0.4-0.4,0.6-0.5,0.6-0.5l-8.7-10.8c0,0-0.3,0.2-0.8,0.7c-0.5,0.4-1.2,1.1-2,1.9
				c-1.8,1.5-3.8,3.7-5.8,6c-1,1.2-1.9,2.4-2.7,3.5c-0.9,1.1-1.6,2.2-2.2,3.2C513.2,436.9,512.4,438.2,512.4,438.2"/>
			<path class="st0" d="M505.8,480.6l13.6-2.7c0,0-0.2-1.2-0.4-2.9c-0.2-0.9-0.3-1.9-0.3-3c0-0.6-0.1-1.1-0.1-1.7l0-0.9l0-0.4l0-0.2
				l0-0.1l0-0.1v0c0,0.9,0,0.2,0,0.4v0l0,0c0.1-1.4,0.1-2.8,0.2-4.1c0-0.6,0.1-1.3,0.1-1.9c0.1-0.5,0.2-0.9,0.2-1.3
				c0.2-1.6,0.4-2.7,0.4-2.7l-13.7-2.6c0,0-0.2,1.6-0.6,3.9c-0.1,0.6-0.2,1.2-0.3,1.9c-0.1,0.6-0.1,1.2-0.1,1.9
				c-0.1,1.3-0.1,2.7-0.2,4.1l0,0.4l0,0.1l0,0.3l0,0.6l0.1,1.1c0,0.7,0.1,1.5,0.1,2.2c0,1.4,0.2,2.8,0.4,3.9
				C505.5,479,505.8,480.6,505.8,480.6"/>
			<path class="st0" d="M527.8,517.2l8.8-10.8c0,0-3.7-3-6.8-6.7c-1.4-1.9-3-3.7-3.8-5.3c-0.9-1.5-1.5-2.5-1.5-2.5l-12.2,6.7
				c0,0,0.8,1.3,2,3.3c1.1,2,3.1,4.4,4.9,6.8C523,513.3,527.8,517.2,527.8,517.2"/>
			<path class="st0" d="M621,436.1l-11.9,7.2c0,0,0.2,0.3,0.4,0.7c0.2,0.5,0.7,1,1.1,1.9c0.7,1.6,1.9,3.7,2.6,6
				c0.9,2.2,1.4,4.5,1.8,6.2c0.3,0.8,0.3,1.6,0.4,2.1c0.1,0.5,0.1,0.8,0.1,0.8l13.7-2.1c0,0-0.1-0.4-0.2-1c-0.1-0.7-0.2-1.6-0.5-2.7
				c-0.6-2.2-1.2-5.2-2.4-8c-0.9-2.9-2.4-5.6-3.4-7.7c-0.5-1.1-1-1.8-1.4-2.4C621.2,436.4,621,436.1,621,436.1"/>
			<path class="st0" d="M587.6,409.2l-4.5,13.2c0,0,1.1,0.4,2.8,1c0.8,0.3,1.7,0.8,2.7,1.3c1,0.5,2.1,1,3.1,1.6c1,0.6,2,1.2,3,1.8
				c0.9,0.7,1.7,1.3,2.4,1.8c1.5,1,2.3,1.9,2.3,1.9l9.2-10.5c0,0-1.1-1.1-2.9-2.4c-0.9-0.7-2-1.5-3.1-2.3c-1.2-0.7-2.5-1.5-3.8-2.3
				c-1.3-0.8-2.7-1.5-4-2.1c-1.3-0.6-2.5-1.2-3.5-1.6C589.1,409.7,587.6,409.2,587.6,409.2"/>
			<path class="st0" d="M545,409.9l5,13c0,0,1.1-0.4,2.8-1c0.9-0.2,1.9-0.5,2.9-0.8c1.1-0.3,2.2-0.6,3.4-0.7c1.2-0.2,2.3-0.4,3.4-0.5
				c1.1-0.1,2.2-0.1,3-0.1c0.4,0,0.9,0,1.2-0.1c0.2,0,0.3,0,0.5,0l0.1,0h0h0c0.4,0-0.6,0-0.5,0h0l0,0l0.1,0l0.2,0c0.6,0,1,0,1,0
				l0.7-13.9c0,0-0.3,0-1,0l-0.2,0l-0.1,0l-0.4,0c-0.2,0-0.4,0-0.6,0c-0.5,0-1,0-1.6,0.1c-1.1,0.1-2.5,0.1-3.9,0.2
				c-1.4,0.2-2.9,0.4-4.4,0.7c-1.5,0.2-3,0.5-4.4,0.9c-1.4,0.4-2.7,0.7-3.8,1C546.4,409.4,545,409.9,545,409.9"/>
		</g>
		<g id="tirerotate">
			<circle class="st1" cx="567.3" cy="468.5" r="42.2"/>
		</g>
		<g id="tireskew">
			<path class="st2" d="M122.6,466.3h19.9c2,0,3.8-1.1,4.7-2.9l30.2-61.3c0.9-1.8,2.7-2.9,4.7-2.9h71c1.8,0,3.5,0.9,4.4,2.4
				l40.1,62.3c1,1.5,2.6,2.4,4.4,2.4h187c1.9,0,3.7-1.1,4.6-2.8l33-61.6c0.9-1.7,2.7-2.8,4.6-2.8h96.1c2.9,0,5.3-2.4,5.3-5.3v-75.6
				c0-1.2-0.4-2.4-1.2-3.3l-51.4-63.5c-1-1.2-2.5-2-4.1-2h-93c-2.9,0-5.3,2.4-5.3,5.3v120c0,2.9-2.4,5.3-5.3,5.3H122.6
				c-2.9,0-5.3,2.4-5.3,5.3V461C117.3,463.9,119.7,466.3,122.6,466.3"/>
		</g>
		<g id="tireskew">
			<path class="st3" d="M512.6,277.7v36c0,2.9,2.4,5.3,5.3,5.3h74.6c4.4,0,6.9-5.1,4.1-8.6l-29.1-36c-1-1.2-2.5-2-4.1-2h-45.6
			C515,272.4,512.6,274.8,512.6,277.7"/>
		</g>
		<g id="tirecircle">
			<path class="st2" d="M454.9,360.9h-332c-2.9,0-5.3-2.4-5.3-5.3V204.1c0-2.9,2.4-5.3,5.3-5.3h332c2.9,0,5.3,2.4,5.3,5.3v151.6
				C460.1,358.5,457.8,360.9,454.9,360.9"/>
		</g>
	</g>
</g>
<g>
	<g>
		<path class="st0" d="M992.3,499.8l-5.1-11.7c0,0-0.3,0.2-0.8,0.3c-0.5,0.2-1.3,0.5-2.1,0.8c-1.8,0.6-4.1,1.6-6.6,2.1
			c-1.2,0.3-2.4,0.6-3.6,0.9c-1.1,0.3-2.2,0.4-3.2,0.5c-1.9,0.3-3.1,0.5-3.1,0.5l1.5,12.7c0,0,1.5-0.2,3.7-0.6
			c1.1-0.2,2.4-0.3,3.8-0.6c1.4-0.3,2.8-0.7,4.2-1.1c2.9-0.6,5.7-1.7,7.8-2.5c1-0.4,1.9-0.7,2.5-0.9
			C991.9,500,992.3,499.8,992.3,499.8"/>
		<path class="st0" d="M1025.3,473.6l-10.2-7.6c0,0-0.7,1-1.9,2.5c-1.3,1.4-2.9,3.3-4.6,5.1c-1.9,1.7-3.7,3.4-5.1,4.6
			c-1.5,1.1-2.5,1.9-2.5,1.9l7.6,10.2c0,0,1.2-0.9,3-2.2c1.7-1.4,3.9-3.5,6.1-5.5c2-2.2,4-4.4,5.5-6.1
			C1024.4,474.8,1025.3,473.6,1025.3,473.6"/>
		<path class="st0" d="M1041,434.5l-12.7-1.5c0,0-0.2,1.2-0.5,3.1c-0.2,0.9-0.2,2-0.5,3.2c-0.3,1.1-0.6,2.4-0.9,3.6
			c-0.5,2.5-1.5,4.8-2.1,6.6c-0.3,0.9-0.6,1.6-0.8,2.1c-0.2,0.5-0.4,0.8-0.4,0.8l11.7,5.1c0,0,0.2-0.3,0.4-0.9
			c0.2-0.6,0.5-1.5,0.9-2.5c0.7-2.1,1.9-4.9,2.5-7.8c0.4-1.4,0.7-2.9,1.1-4.2c0.3-1.4,0.4-2.7,0.6-3.8
			C1040.7,436,1041,434.5,1041,434.5"/>
		<path class="st0" d="M884.9,457.2l11.7-5.1c0,0-0.2-0.3-0.3-0.8c-0.2-0.5-0.5-1.3-0.8-2.1c-0.6-1.8-1.6-4.1-2.1-6.6
			c-0.3-1.2-0.6-2.4-0.9-3.6c-0.3-1.1-0.4-2.2-0.5-3.2c-0.3-1.9-0.5-3.1-0.5-3.1l-12.7,1.5c0,0,0.2,1.5,0.6,3.7
			c0.2,1.1,0.3,2.4,0.6,3.8c0.3,1.4,0.7,2.8,1.1,4.2c0.6,2.9,1.7,5.7,2.5,7.8c0.4,1,0.7,1.9,0.9,2.5
			C884.7,456.9,884.9,457.2,884.9,457.2"/>
		<path class="st0" d="M911.1,490.3l7.6-10.2c0,0-1-0.7-2.5-1.9c-1.4-1.3-3.3-2.9-5.1-4.6c-1.7-1.9-3.4-3.7-4.6-5.1
			c-1.1-1.5-1.9-2.5-1.9-2.5l-10.2,7.6c0,0,0.9,1.2,2.2,3c1.4,1.7,3.5,3.9,5.5,6.1c2.2,2,4.4,4,6.1,5.5
			C909.9,489.4,911.1,490.3,911.1,490.3"/>
		<path class="st0" d="M950.2,505.9l1.5-12.7c0,0-1.2-0.2-3.1-0.5c-0.9-0.2-2-0.2-3.2-0.5c-1.1-0.3-2.4-0.6-3.6-0.9
			c-2.5-0.5-4.8-1.5-6.6-2.1c-0.9-0.3-1.6-0.6-2.1-0.8c-0.5-0.2-0.8-0.4-0.8-0.4l-5.1,11.7c0,0,0.3,0.2,0.9,0.4
			c0.6,0.2,1.5,0.5,2.5,0.9c2.1,0.7,4.9,1.9,7.8,2.5c1.4,0.4,2.9,0.7,4.2,1.1c1.4,0.3,2.7,0.4,3.8,0.6
			C948.7,505.7,950.2,505.9,950.2,505.9"/>
		<path class="st0" d="M927.5,349.8l5.1,11.7c0,0,0.3-0.2,0.8-0.3c0.5-0.2,1.3-0.5,2.1-0.8c1.8-0.6,4.1-1.6,6.6-2.1
			c1.2-0.3,2.4-0.6,3.6-0.9c1.1-0.3,2.2-0.4,3.2-0.5c1.9-0.3,3.1-0.5,3.1-0.5l-1.5-12.7c0,0-1.5,0.2-3.7,0.6
			c-1.1,0.2-2.4,0.3-3.8,0.6c-1.4,0.3-2.8,0.7-4.2,1.1c-2.9,0.6-5.7,1.7-7.8,2.5c-1,0.4-1.9,0.7-2.5,0.9
			C927.8,349.6,927.5,349.8,927.5,349.8"/>
		<path class="st0" d="M894.4,376.1l10.2,7.6c0,0,0.7-1,1.9-2.5c1.3-1.4,2.9-3.3,4.6-5.1c1.9-1.7,3.7-3.4,5.1-4.6
			c1.5-1.1,2.5-1.9,2.5-1.9l-7.6-10.2c0,0-1.2,0.9-3,2.2c-1.7,1.4-3.9,3.5-6.1,5.5c-2,2.2-4,4.4-5.5,6.1
			C895.3,374.9,894.4,376.1,894.4,376.1"/>
		<path class="st0" d="M878.8,415.2l12.7,1.5c0,0,0.2-1.2,0.5-3.1c0.2-0.9,0.2-2,0.5-3.2c0.3-1.1,0.6-2.4,0.9-3.6
			c0.5-2.5,1.5-4.8,2.1-6.6c0.3-0.9,0.6-1.6,0.8-2.1c0.2-0.5,0.4-0.8,0.4-0.8l-11.7-5.1c0,0-0.2,0.3-0.4,0.9
			c-0.2,0.6-0.5,1.5-0.9,2.5c-0.7,2.1-1.9,4.9-2.5,7.8c-0.4,1.4-0.7,2.9-1.1,4.2c-0.3,1.4-0.4,2.7-0.6,3.8
			C879,413.7,878.8,415.2,878.8,415.2"/>
		<path class="st0" d="M1034.9,392.5l-11.7,5.1c0,0,0.2,0.3,0.3,0.8c0.2,0.5,0.5,1.3,0.8,2.1c0.6,1.8,1.6,4.1,2.1,6.6
			c0.3,1.2,0.6,2.4,0.9,3.6c0.3,1.1,0.4,2.2,0.5,3.2c0.3,1.9,0.5,3.1,0.5,3.1l12.7-1.5c0,0-0.2-1.5-0.6-3.7
			c-0.2-1.1-0.3-2.4-0.6-3.8c-0.3-1.4-0.7-2.8-1.1-4.2c-0.6-2.9-1.7-5.7-2.5-7.8c-0.4-1-0.7-1.9-0.9-2.5
			C1035.1,392.8,1034.9,392.5,1034.9,392.5"/>
		<path class="st0" d="M1008.6,359.4l-7.6,10.2c0,0,1,0.7,2.5,1.9c1.4,1.3,3.3,2.9,5.1,4.6c1.7,1.9,3.4,3.7,4.6,5.1
			c1.1,1.5,1.9,2.5,1.9,2.5l10.2-7.6c0,0-0.9-1.2-2.2-3c-1.4-1.7-3.5-3.9-5.5-6.1c-2.2-2-4.4-4-6.1-5.5
			C1009.8,360.3,1008.6,359.4,1008.6,359.4"/>
		<path class="st0" d="M969.6,343.8l-1.5,12.7c0,0,1.2,0.2,3.1,0.5c0.9,0.2,2,0.2,3.2,0.5c1.1,0.3,2.4,0.6,3.6,0.9
			c2.5,0.5,4.8,1.5,6.6,2.1c0.9,0.3,1.6,0.6,2.1,0.8c0.5,0.2,0.8,0.4,0.8,0.4l5.1-11.7c0,0-0.3-0.2-0.9-0.4
			c-0.6-0.2-1.5-0.5-2.5-0.9c-2.1-0.7-4.9-1.9-7.8-2.5c-1.4-0.4-2.9-0.7-4.2-1.1c-1.4-0.3-2.7-0.4-3.8-0.6
			C971,344,969.6,343.8,969.6,343.8"/>
		<circle class="st4" cx="959.9" cy="424.8" r="56.3"/>
		<path class="st0" d="M1308.4,499.8l-5.1-11.7c0,0-0.3,0.2-0.8,0.3c-0.5,0.2-1.3,0.5-2.1,0.8c-1.8,0.6-4.1,1.6-6.6,2.1
			c-1.2,0.3-2.4,0.6-3.6,0.9c-1.1,0.3-2.2,0.4-3.2,0.5c-1.9,0.3-3.1,0.5-3.1,0.5l1.5,12.7c0,0,1.5-0.2,3.7-0.6
			c1.1-0.2,2.4-0.3,3.8-0.6c1.4-0.3,2.8-0.7,4.2-1.1c2.9-0.6,5.7-1.7,7.8-2.5c1-0.4,1.9-0.7,2.5-0.9
			C1308.1,500,1308.4,499.8,1308.4,499.8"/>
		<path class="st0" d="M1341.5,473.6l-10.2-7.6c0,0-0.7,1-1.9,2.5c-1.3,1.4-2.9,3.3-4.6,5.1c-1.9,1.7-3.7,3.4-5.1,4.6
			c-1.5,1.1-2.5,1.9-2.5,1.9l7.6,10.2c0,0,1.2-0.9,3-2.2c1.7-1.4,3.9-3.5,6.1-5.5c2-2.2,4-4.4,5.5-6.1
			C1340.6,474.8,1341.5,473.6,1341.5,473.6"/>
		<path class="st0" d="M1357.1,434.5l-12.7-1.5c0,0-0.2,1.2-0.5,3.1c-0.2,0.9-0.2,2-0.5,3.2c-0.3,1.1-0.6,2.4-0.9,3.6
			c-0.5,2.5-1.5,4.8-2.1,6.6c-0.3,0.9-0.6,1.6-0.8,2.1c-0.2,0.5-0.4,0.8-0.4,0.8l11.7,5.1c0,0,0.2-0.3,0.4-0.9
			c0.2-0.6,0.5-1.5,0.9-2.5c0.7-2.1,1.9-4.9,2.5-7.8c0.4-1.4,0.7-2.9,1.1-4.2c0.3-1.4,0.4-2.7,0.6-3.8L1357.1,434.5z"/>
		<path class="st0" d="M1201,457.2l11.7-5.1c0,0-0.2-0.3-0.3-0.8c-0.2-0.5-0.5-1.3-0.8-2.1c-0.6-1.8-1.6-4.1-2.1-6.6
			c-0.3-1.2-0.6-2.4-0.9-3.6c-0.3-1.1-0.4-2.2-0.5-3.2c-0.3-1.9-0.5-3.1-0.5-3.1l-12.7,1.5c0,0,0.2,1.5,0.6,3.7
			c0.2,1.1,0.3,2.4,0.6,3.8c0.3,1.4,0.7,2.8,1.1,4.2c0.6,2.9,1.7,5.7,2.5,7.8c0.4,1,0.7,1.9,0.9,2.5
			C1200.8,456.9,1201,457.2,1201,457.2"/>
		<path class="st0" d="M1227.3,490.3l7.6-10.2c0,0-1-0.7-2.5-1.9c-1.4-1.3-3.3-2.9-5.1-4.6c-1.7-1.9-3.4-3.7-4.6-5.1
			c-1.1-1.5-1.9-2.5-1.9-2.5l-10.2,7.6c0,0,0.9,1.2,2.2,3c1.4,1.7,3.5,3.9,5.5,6.1c2.2,2,4.4,4,6.1,5.5
			C1226.1,489.4,1227.3,490.3,1227.3,490.3"/>
		<path class="st0" d="M1266.3,505.9l1.5-12.7c0,0-1.2-0.2-3.1-0.5c-0.9-0.2-2-0.2-3.2-0.5c-1.1-0.3-2.4-0.6-3.6-0.9
			c-2.5-0.5-4.8-1.5-6.6-2.1c-0.9-0.3-1.6-0.6-2.1-0.8c-0.5-0.2-0.8-0.4-0.8-0.4l-5.1,11.7c0,0,0.3,0.2,0.9,0.4
			c0.6,0.2,1.5,0.5,2.5,0.9c2.1,0.7,4.9,1.9,7.8,2.5c1.4,0.4,2.9,0.7,4.2,1.1c1.4,0.3,2.7,0.4,3.8,0.6
			C1264.9,505.7,1266.3,505.9,1266.3,505.9"/>
		<path class="st0" d="M1243.6,349.8l5.1,11.7c0,0,0.3-0.2,0.8-0.3c0.5-0.2,1.3-0.5,2.1-0.8c1.8-0.6,4.1-1.6,6.6-2.1
			c1.2-0.3,2.4-0.6,3.6-0.9c1.1-0.3,2.2-0.4,3.2-0.5c1.9-0.3,3.1-0.5,3.1-0.5l-1.5-12.7c0,0-1.5,0.2-3.7,0.6
			c-1.1,0.2-2.4,0.3-3.8,0.6c-1.4,0.3-2.8,0.7-4.2,1.1c-2.9,0.6-5.7,1.7-7.8,2.5c-1,0.4-1.9,0.7-2.5,0.9
			C1244,349.6,1243.6,349.8,1243.6,349.8"/>
		<path class="st0" d="M1210.6,376.1l10.2,7.6c0,0,0.7-1,1.9-2.5c1.3-1.4,2.9-3.3,4.6-5.1c1.9-1.7,3.7-3.4,5.1-4.6
			c1.5-1.1,2.5-1.9,2.5-1.9l-7.6-10.2c0,0-1.2,0.9-3,2.2c-1.7,1.4-3.9,3.5-6.1,5.5c-2,2.2-4,4.4-5.5,6.1
			C1211.5,374.9,1210.6,376.1,1210.6,376.1"/>
		<path class="st0" d="M1194.9,415.2l12.7,1.5l0.5-3.1c0.2-0.9,0.2-2,0.5-3.2c0.3-1.1,0.6-2.4,0.9-3.6c0.5-2.5,1.5-4.8,2.1-6.6
			c0.3-0.9,0.6-1.6,0.8-2.1c0.2-0.5,0.4-0.8,0.4-0.8l-11.7-5.1c0,0-0.2,0.3-0.4,0.9c-0.2,0.6-0.5,1.5-0.9,2.5
			c-0.7,2.1-1.9,4.9-2.5,7.8c-0.4,1.4-0.7,2.9-1.1,4.2c-0.3,1.4-0.4,2.7-0.6,3.8L1194.9,415.2z"/>
		<path class="st0" d="M1351,392.5l-11.7,5.1c0,0,0.2,0.3,0.3,0.8c0.2,0.5,0.5,1.3,0.8,2.1c0.6,1.8,1.6,4.1,2.1,6.6
			c0.3,1.2,0.6,2.4,0.9,3.6c0.3,1.1,0.4,2.2,0.5,3.2c0.3,1.9,0.5,3.1,0.5,3.1l12.7-1.5c0,0-0.2-1.5-0.6-3.7
			c-0.2-1.1-0.3-2.4-0.6-3.8c-0.3-1.4-0.7-2.8-1.1-4.2c-0.6-2.9-1.7-5.7-2.5-7.8c-0.4-1-0.7-1.9-0.9-2.5
			C1351.2,392.8,1351,392.5,1351,392.5"/>
		<path class="st0" d="M1324.8,359.4l-7.6,10.2c0,0,1,0.7,2.5,1.9c1.4,1.3,3.3,2.9,5.1,4.6c1.7,1.9,3.4,3.7,4.6,5.1
			c1.1,1.5,1.9,2.5,1.9,2.5l10.2-7.6c0,0-0.9-1.2-2.2-3c-1.4-1.7-3.5-3.9-5.5-6.1c-2.2-2-4.4-4-6.1-5.5
			C1326,360.3,1324.8,359.4,1324.8,359.4"/>
		<path class="st0" d="M1285.7,343.8l-1.5,12.7c0,0,1.2,0.2,3.1,0.5c0.9,0.2,2,0.2,3.2,0.5c1.1,0.3,2.4,0.6,3.6,0.9
			c2.5,0.5,4.8,1.5,6.6,2.1c0.9,0.3,1.6,0.6,2.1,0.8c0.5,0.2,0.8,0.4,0.8,0.4l5.1-11.7c0,0-0.3-0.2-0.9-0.4
			c-0.6-0.2-1.5-0.5-2.5-0.9c-2.1-0.7-4.9-1.9-7.8-2.5c-1.4-0.4-2.9-0.7-4.2-1.1c-1.4-0.3-2.7-0.4-3.8-0.6
			C1287.2,344,1285.7,343.8,1285.7,343.8"/>
		<circle class="st4" cx="1276" cy="424.8" r="56.3"/>
		<path class="st2" d="M1004.2,320.9l79,80.1c0.9,0.9,2.2,1.5,3.5,1.5h75c1.3,0,2.6-0.5,3.5-1.5l79.9-80.8c0.9-0.9,2.2-1.5,3.5-1.5
			h87.2c2.7,0,4.9-2.2,4.9-4.9v-67.9c0-2.7-2.2-4.9-4.9-4.9h-57.6c-1.3,0-2.6-0.5-3.5-1.5l-38.8-39.2c-0.9-0.9-2.2-1.5-3.5-1.5
			h-50.8c-2.7,0-4.9,2.2-4.9,4.9v0.1c0,2.7,2.2,4.9,4.9,4.9h34.7c1.3,0,2.6,0.5,3.5,1.5l23.7,24.2c2.6,2.7,1.4,7.1-2.1,8.2
			l-235.2,70C1002.7,313.7,1001.6,318.2,1004.2,320.9"/>
		<path class="st2" d="M891.7,247.1v51.5c0,2.7,2.2,5,5,5h102.4c0.5-0.1,0.9-0.1,1.4-0.2l120.7-34.7c5.5-1.6,4.5-9.6-1.2-9.8
			l-115.3-3.2c-2.7-0.1-4.8-2.3-4.8-5v-3.6c0-2.8-2.2-5-5-5h-98.2C894,242.1,891.7,244.3,891.7,247.1"/>
	</g>
</g>
<g>
	<g>
	</g>
	<g>
		<defs>
			<rect id="SVGID_1_" x="1474.9" y="74.5" width="847.6" height="600.9"/>
		</defs>
		<clipPath id="SVGID_2_">
			<use xlink:href="#SVGID_1_"  style="overflow:visible;"/>
		</clipPath>
	</g>
	<g>
		<path class="st0" d="M1767.9,503.3l-3.6-8c0,0-0.7,0.3-1.7,0.6c-1,0.4-2.4,0.9-3.8,1.2c-1.4,0.4-2.8,0.7-3.9,0.8l-1.8,0.3l1,8.7
			c0,0,0.9-0.1,2.2-0.3c1.3-0.1,3.1-0.5,4.8-1c1.7-0.4,3.4-1,4.7-1.4C1767.1,503.7,1767.9,503.3,1767.9,503.3"/>
		<path class="st0" d="M1787.7,488.2l-7.3-5.2c0,0-0.4,0.6-1.1,1.4c-0.7,0.8-1.7,1.8-2.7,2.8c-1.1,0.9-2.2,1.9-3,2.6
			c-0.9,0.6-1.5,1-1.5,1l5.4,7c0,0,0.7-0.5,1.8-1.3c1-0.8,2.3-2,3.6-3.1c1.2-1.3,2.4-2.5,3.3-3.5L1787.7,488.2z"/>
		<path class="st0" d="M1797,465.8l-9-1c0,0-0.1,0.7-0.3,1.7c-0.1,1-0.5,2.4-0.8,3.7c-0.3,1.4-0.9,2.7-1.2,3.6
			c-0.2,0.5-0.3,0.9-0.4,1.2c-0.1,0.3-0.2,0.4-0.2,0.4l8.3,3.5c0,0,0.1-0.2,0.3-0.5c0.1-0.4,0.3-0.9,0.6-1.5
			c0.4-1.2,1.1-2.8,1.5-4.5c0.5-1.7,0.9-3.3,1-4.6C1796.9,466.6,1797,465.8,1797,465.8"/>
		<path class="st0" d="M1703.8,478.8l8.3-3.5c0,0-0.3-0.6-0.6-1.6c-0.4-1-0.9-2.3-1.2-3.6c-0.4-1.3-0.7-2.7-0.8-3.7
			c-0.2-1-0.3-1.7-0.3-1.7l-9,1c0,0,0.1,0.8,0.3,2.1c0.1,1.3,0.5,2.9,1,4.6c0.4,1.7,1,3.3,1.5,4.5
			C1703.4,478,1703.8,478.8,1703.8,478.8"/>
		<path class="st0" d="M1719.5,497.8l5.4-7c0,0-0.6-0.4-1.5-1c-0.8-0.7-1.9-1.6-3-2.6c-1-1-1.9-2.1-2.7-2.8
			c-0.6-0.8-1.1-1.4-1.1-1.4l-7.3,5.2c0,0,0.5,0.7,1.3,1.7c0.9,1,2.1,2.2,3.3,3.5c1.3,1.1,2.6,2.3,3.6,3.2
			C1718.7,497.3,1719.5,497.8,1719.5,497.8"/>
		<path class="st0" d="M1742.8,506.8l1.1-8.7c0,0-0.7-0.1-1.8-0.3c-1.1-0.1-2.5-0.4-3.9-0.8c-1.4-0.3-2.8-0.8-3.8-1.2
			c-0.5-0.2-0.9-0.3-1.2-0.4c-0.3-0.1-0.5-0.2-0.5-0.2l-3.6,8c0,0,0.2,0.1,0.6,0.2c0.4,0.1,0.9,0.3,1.5,0.5c1.3,0.4,2.9,1.1,4.6,1.5
			c1.7,0.4,3.4,0.9,4.8,1C1741.9,506.7,1742.8,506.8,1742.8,506.8"/>
		<path class="st0" d="M1729.2,417.1l3.6,8c0,0,0.7-0.3,1.7-0.6c1-0.4,2.4-0.9,3.8-1.2c1.4-0.4,2.8-0.7,3.9-0.8
			c1.1-0.2,1.8-0.3,1.8-0.3l-1-8.7c0,0-0.9,0.1-2.2,0.3c-1.3,0.1-3.1,0.5-4.8,1c-1.7,0.4-3.4,1-4.7,1.4
			C1730.1,416.8,1729.2,417.1,1729.2,417.1"/>
		<path class="st0" d="M1709.5,432.2l7.3,5.2c0,0,0.4-0.6,1.1-1.4c0.7-0.8,1.7-1.8,2.7-2.8c1.1-0.9,2.2-1.9,3-2.6
			c0.9-0.6,1.5-1,1.5-1l-5.4-7c0,0-0.7,0.5-1.8,1.3c-1,0.8-2.3,2-3.6,3.1c-1.2,1.3-2.4,2.5-3.3,3.5
			C1710,431.5,1709.5,432.2,1709.5,432.2"/>
		<path class="st0" d="M1700.1,454.6l9,1c0,0,0.1-0.7,0.3-1.7c0.1-1,0.5-2.4,0.8-3.7c0.3-1.4,0.9-2.7,1.2-3.6
			c0.2-0.5,0.3-0.9,0.4-1.2c0.1-0.3,0.2-0.4,0.2-0.4l-8.3-3.5c0,0-0.1,0.2-0.3,0.5c-0.1,0.4-0.3,0.9-0.6,1.5
			c-0.4,1.2-1.1,2.8-1.5,4.5c-0.5,1.7-0.9,3.3-1,4.6C1700.3,453.8,1700.1,454.6,1700.1,454.6"/>
		<path class="st0" d="M1793.4,441.6l-8.3,3.5c0,0,0.3,0.6,0.6,1.6c0.4,1,0.9,2.3,1.2,3.6c0.4,1.3,0.7,2.7,0.8,3.7
			c0.2,1,0.3,1.7,0.3,1.7l9-1c0,0-0.1-0.8-0.3-2.1c-0.1-1.3-0.5-2.9-1-4.6c-0.4-1.7-1-3.3-1.5-4.5
			C1793.8,442.4,1793.4,441.6,1793.4,441.6"/>
		<path class="st0" d="M1777.7,422.6l-5.4,7c0,0,0.6,0.4,1.5,1c0.8,0.7,1.9,1.6,3,2.6c1,1,1.9,2.1,2.7,2.8c0.6,0.8,1.1,1.4,1.1,1.4
			l7.3-5.2c0,0-0.5-0.7-1.3-1.7c-0.9-1-2.1-2.2-3.3-3.5c-1.3-1.1-2.6-2.3-3.6-3.2C1778.4,423.1,1777.7,422.6,1777.7,422.6"/>
		<path class="st0" d="M1754.4,413.6l-1.1,8.7c0,0,0.7,0.1,1.8,0.3c1.1,0.1,2.5,0.4,3.9,0.8c1.4,0.3,2.8,0.8,3.8,1.2
			c0.5,0.2,0.9,0.3,1.2,0.4c0.3,0.1,0.5,0.2,0.5,0.2l3.6-8c0,0-0.2-0.1-0.6-0.2c-0.4-0.1-0.9-0.3-1.5-0.5c-1.3-0.4-2.9-1.1-4.6-1.5
			c-1.7-0.4-3.4-0.9-4.8-1C1755.3,413.7,1754.4,413.6,1754.4,413.6"/>
		<ellipse class="st1" cx="1748.6" cy="460.2" rx="33.3" ry="32"/>
		<path class="st0" d="M1877.8,503.3l-3.6-8c0,0-0.7,0.3-1.7,0.6c-1,0.4-2.4,0.9-3.8,1.2c-1.4,0.4-2.8,0.7-3.9,0.8
			c-1.1,0.2-1.8,0.3-1.8,0.3l1,8.7c0,0,0.9-0.1,2.2-0.3c1.3-0.1,3.1-0.5,4.8-1c1.7-0.4,3.4-1,4.7-1.4
			C1877,503.7,1877.8,503.3,1877.8,503.3"/>
		<path class="st0" d="M1897.6,488.2l-7.3-5.2c0,0-0.4,0.6-1.1,1.4c-0.7,0.8-1.7,1.8-2.7,2.8c-1.1,0.9-2.2,1.9-3,2.6
			c-0.9,0.6-1.5,1-1.5,1l5.4,7c0,0,0.7-0.5,1.8-1.3c1-0.8,2.3-2,3.6-3.1c1.2-1.3,2.4-2.5,3.3-3.5L1897.6,488.2z"/>
		<path class="st0" d="M1906.9,465.8l-9-1c0,0-0.1,0.7-0.3,1.7c-0.1,1-0.5,2.4-0.8,3.7c-0.3,1.4-0.9,2.7-1.2,3.6
			c-0.2,0.5-0.3,0.9-0.4,1.2c-0.1,0.3-0.2,0.4-0.2,0.4l8.3,3.5c0,0,0.1-0.2,0.3-0.5c0.1-0.4,0.3-0.9,0.6-1.5
			c0.4-1.2,1.1-2.8,1.5-4.5c0.5-1.7,0.9-3.3,1-4.6C1906.8,466.6,1906.9,465.8,1906.9,465.8"/>
		<path class="st0" d="M1813.7,478.8l8.3-3.5c0,0-0.3-0.6-0.6-1.6c-0.4-1-0.9-2.3-1.2-3.6c-0.4-1.3-0.7-2.7-0.8-3.7
			c-0.2-1-0.3-1.7-0.3-1.7l-9,1c0,0,0.1,0.8,0.3,2.1c0.1,1.3,0.5,2.9,1,4.6c0.4,1.7,1,3.3,1.5,4.5
			C1813.3,478,1813.7,478.8,1813.7,478.8"/>
		<path class="st0" d="M1829.3,497.8l5.4-7c0,0-0.6-0.4-1.5-1c-0.8-0.7-1.9-1.6-3-2.6c-1-1-1.9-2.1-2.7-2.8
			c-0.6-0.8-1.1-1.4-1.1-1.4l-7.3,5.2c0,0,0.5,0.7,1.3,1.7c0.9,1,2.1,2.2,3.3,3.5c1.3,1.1,2.6,2.3,3.6,3.2
			C1828.6,497.3,1829.3,497.8,1829.3,497.8"/>
		<path class="st0" d="M1852.7,506.8l1.1-8.7c0,0-0.7-0.1-1.8-0.3c-1.1-0.1-2.5-0.4-3.9-0.8c-1.4-0.3-2.8-0.8-3.8-1.2
			c-0.5-0.2-0.9-0.3-1.2-0.4c-0.3-0.1-0.5-0.2-0.5-0.2l-3.6,8c0,0,0.2,0.1,0.6,0.2c0.4,0.1,0.9,0.3,1.5,0.5c1.3,0.4,2.9,1.1,4.6,1.5
			c1.7,0.4,3.4,0.9,4.8,1C1851.8,506.7,1852.7,506.8,1852.7,506.8"/>
		<path class="st0" d="M1839.1,417.1l3.6,8c0,0,0.7-0.3,1.7-0.6c1-0.4,2.4-0.9,3.8-1.2c1.4-0.4,2.8-0.7,3.9-0.8
			c1.1-0.2,1.8-0.3,1.8-0.3l-1-8.7c0,0-0.9,0.1-2.2,0.3c-1.3,0.1-3.1,0.5-4.8,1c-1.7,0.4-3.4,1-4.7,1.4
			C1839.9,416.8,1839.1,417.1,1839.1,417.1"/>
		<path class="st0" d="M1819.4,432.2l7.3,5.2c0,0,0.4-0.6,1.1-1.4c0.7-0.8,1.7-1.8,2.7-2.8c1.1-0.9,2.2-1.9,3-2.6
			c0.9-0.6,1.5-1,1.5-1l-5.4-7c0,0-0.7,0.5-1.8,1.3c-1,0.8-2.3,2-3.6,3.1c-1.2,1.3-2.4,2.5-3.3,3.5L1819.4,432.2z"/>
		<path class="st0" d="M1810,454.6l9,1c0,0,0.1-0.7,0.3-1.7c0.1-1,0.5-2.4,0.8-3.7c0.3-1.4,0.9-2.7,1.2-3.6c0.2-0.5,0.3-0.9,0.4-1.2
			c0.1-0.3,0.2-0.4,0.2-0.4l-8.3-3.5c0,0-0.1,0.2-0.3,0.5c-0.1,0.4-0.3,0.9-0.6,1.5c-0.4,1.2-1.1,2.8-1.5,4.5
			c-0.5,1.7-0.9,3.3-1,4.6C1810.2,453.8,1810,454.6,1810,454.6"/>
		<path class="st0" d="M1903.3,441.6l-8.3,3.5c0,0,0.3,0.6,0.6,1.6c0.4,1,0.9,2.3,1.2,3.6c0.4,1.3,0.7,2.7,0.8,3.7
			c0.2,1,0.3,1.7,0.3,1.7l9-1c0,0-0.1-0.8-0.3-2.1c-0.1-1.3-0.5-2.9-1-4.6c-0.4-1.7-1-3.3-1.5-4.5
			C1903.6,442.4,1903.3,441.6,1903.3,441.6"/>
		<path class="st0" d="M1887.6,422.6l-5.4,7c0,0,0.6,0.4,1.5,1c0.8,0.7,1.9,1.6,3,2.6c1,1,1.9,2.1,2.7,2.8c0.6,0.8,1.1,1.4,1.1,1.4
			l7.3-5.2c0,0-0.5-0.7-1.3-1.7c-0.9-1-2.1-2.2-3.3-3.5c-1.3-1.1-2.6-2.3-3.6-3.2C1888.3,423.1,1887.6,422.6,1887.6,422.6"/>
		<path class="st0" d="M1864.3,413.6l-1.1,8.7c0,0,0.7,0.1,1.8,0.3c1.1,0.1,2.5,0.4,3.9,0.8c1.4,0.3,2.8,0.8,3.8,1.2
			c0.5,0.2,0.9,0.3,1.2,0.4c0.3,0.1,0.5,0.2,0.5,0.2l3.6-8c0,0-0.2-0.1-0.6-0.2c-0.4-0.1-0.9-0.3-1.5-0.5c-1.3-0.4-2.9-1.1-4.6-1.5
			c-1.7-0.4-3.4-0.9-4.8-1C1865.1,413.7,1864.3,413.6,1864.3,413.6"/>
		<ellipse class="st1" cx="1858.5" cy="460.2" rx="33.3" ry="32"/>
		<path class="st2" d="M1671.9,458.5h14.1c2,0,3.7-1.1,4.6-2.8l23.3-45.4c0.9-1.7,2.7-2.8,4.6-2.8h169.4c1.8,0,3.4,0.9,4.3,2.3
			l31,46.4c0.9,1.4,2.6,2.3,4.3,2.3h230.5c4.1,0,6.6-4.4,4.3-7.7l-2.5-3.6c-1-1.4-2.6-2.2-4.3-2.2h-84.4c-2.8,0-5.1-2.2-5.1-4.9V398
			c0-2.7-2.3-4.9-5.1-4.9h-389c-2.8,0-5.1,2.2-5.1,4.9v55.6C1666.7,456.3,1669,458.5,1671.9,458.5"/>
		<path class="st2" d="M2059.7,377.8h-386.5c-3.4,0-6.1-2.6-6.1-5.8V204.6c0-3.2,2.7-5.8,6.1-5.8h386.5c3.4,0,6.1,2.6,6.1,5.8V372
			C2065.8,375.2,2063,377.8,2059.7,377.8"/>
	</g>
</g>
<g>
	<g>
		<circle class="st5" cx="2538.5" cy="402.6" r="76.3"/>
		<circle class="st5" cx="2866.6" cy="402.6" r="76.3"/>
		<path class="st6" d="M2541.8,393.7l55.2-147.7c0.8-2.1,2.9-3.5,5.2-3.2l196.8,20.9c4.2,0.5,6,5.6,3,8.6l-89.8,87.2
			c-0.6,0.6-1.4,1.1-2.3,1.3l-162.2,39.5C2543.7,401.3,2540.4,397.5,2541.8,393.7z"/>
		<line class="st6" x1="2711.1" y1="360.5" x2="2598.4" y2="242.4"/>
		<path class="st6" d="M2866.6,402.6l-70.4-166.9c-1.8-4.3,2.1-8.7,6.6-7.5l38.2,10.5c4.5,1.2,5.6,7.1,1.8,9.9l-13.6,9.8"/>
		<path class="st2" d="M2566,205.4l-6.2,27.8c-0.8,3.6,2.5,6.8,6.1,6l57.6-13.9c5-1.2,5.1-8.4,0.1-9.7l-51.4-13.9
			C2569.4,200.9,2566.6,202.6,2566,205.4"/>
		<path class="st0" d="M2539.6,462.4l-0.3-13.2c0,0-0.3,0-0.8,0l-0.1,0l-0.1,0h0c0.9,0,0.2,0,0.4,0h0l0,0h0l-0.3,0
			c-0.2,0-0.4,0-0.6,0c-0.4,0-0.9,0-1.4-0.1c-1-0.1-2.2-0.1-3.4-0.2c-0.9-0.2-2-0.3-3-0.5c-1-0.1-2.1-0.4-3.1-0.7
			c-1-0.3-2-0.5-2.8-0.7c-1.6-0.6-2.6-1-2.6-1l-4.8,12.4c0,0,1.4,0.5,3.4,1.2c1,0.3,2.3,0.6,3.6,1c1.3,0.3,2.7,0.7,4.2,0.9
			c1.5,0.2,3,0.4,4.4,0.6c1.3,0.1,2.4,0.1,3.4,0.2c0.5,0,1,0.1,1.4,0.1c0.2,0,0.4,0,0.6,0l0.3,0l0.3,0l0.1,0l0.1,0
			C2539.3,462.4,2539.6,462.4,2539.6,462.4"/>
		<path class="st0" d="M2577.7,447.6l-8.7-10c0,0-0.8,0.8-2.2,1.8c-0.7,0.5-1.5,1.1-2.3,1.7c-0.9,0.5-1.9,1.1-2.8,1.7
			c-0.9,0.6-2,1.1-2.9,1.5c-1,0.4-1.8,0.9-2.6,1.2c-1.6,0.6-2.7,1-2.7,1l4.3,12.5c0,0,1.4-0.5,3.4-1.3c1-0.4,2.1-1,3.4-1.6
			c1.2-0.6,2.6-1.2,3.8-2c1.2-0.8,2.5-1.5,3.6-2.2c1.1-0.8,2.1-1.6,3-2.2C2576.7,448.7,2577.7,447.6,2577.7,447.6"/>
		<path class="st0" d="M2597.5,411.9l-13.1-1.8c0,0,0,0.3-0.1,0.7c-0.1,0.5-0.1,1.1-0.4,1.9c-0.4,1.6-0.9,3.9-1.8,5.9
			c-0.7,2.2-1.8,4.1-2.5,5.7c-0.8,1.5-1.4,2.4-1.4,2.4l11.3,6.9c0,0,0.8-1.2,1.8-3.1c0.9-2,2.3-4.5,3.2-7.3c1.1-2.7,1.7-5.5,2.3-7.7
			c0.3-1,0.4-2,0.5-2.6C2597.4,412.3,2597.5,411.9,2597.5,411.9"/>
		<path class="st0" d="M2486.1,373.7l11.6,6.4c0,0,0.6-1,1.5-2.4c0.4-0.7,1-1.6,1.6-2.4c0.7-0.8,1.3-1.8,2-2.6
			c1.5-1.7,3-3.4,4.3-4.5c0.6-0.6,1.1-1.1,1.5-1.4c0.4-0.3,0.6-0.5,0.6-0.5l-8.3-10.3c0,0-0.3,0.2-0.8,0.6c-0.5,0.4-1.1,1-1.9,1.8
			c-1.7,1.4-3.6,3.6-5.6,5.7c-0.9,1.1-1.8,2.3-2.6,3.4c-0.8,1.1-1.6,2.1-2.1,3.1C2486.8,372.5,2486.1,373.7,2486.1,373.7"/>
		<path class="st0" d="M2479.8,414.1l13-2.5c0,0-0.2-1.1-0.4-2.8c-0.2-0.8-0.3-1.8-0.3-2.9c0-0.5-0.1-1.1-0.1-1.6l0-0.8l0-0.4l0-0.2
			l0-0.1l0-0.1v0c0,0.9,0,0.2,0,0.4v0l0,0c0.1-1.3,0.1-2.7,0.2-3.9c0-0.6,0.1-1.3,0.1-1.8c0.1-0.4,0.2-0.8,0.2-1.2
			c0.2-1.5,0.4-2.5,0.4-2.5l-13-2.5c0,0-0.2,1.5-0.6,3.7c-0.1,0.6-0.2,1.2-0.3,1.8c-0.1,0.6-0.1,1.2-0.1,1.8
			c-0.1,1.3-0.1,2.6-0.2,3.9l0,0.4l0,0.1l0,0.3l0,0.5l0.1,1.1c0,0.7,0.1,1.4,0.1,2.1c0,1.4,0.2,2.6,0.4,3.7
			C2479.6,412.7,2479.8,414.1,2479.8,414.1"/>
		<path class="st0" d="M2500.8,449l8.4-10.3c0,0-3.5-2.9-6.4-6.4c-1.3-1.8-2.8-3.5-3.6-5.1c-0.9-1.4-1.5-2.4-1.5-2.4l-11.6,6.4
			c0,0,0.8,1.2,1.9,3.1c1,1.9,2.9,4.2,4.7,6.5C2496.2,445.3,2500.8,449,2500.8,449"/>
		<path class="st0" d="M2589.6,371.7l-11.3,6.9c0,0,0.1,0.2,0.4,0.7c0.2,0.4,0.7,1,1,1.8c0.7,1.5,1.8,3.5,2.5,5.7
			c0.9,2.1,1.3,4.3,1.8,5.9c0.3,0.8,0.3,1.5,0.4,2c0.1,0.5,0.1,0.8,0.1,0.8l13.1-2c0,0-0.1-0.4-0.2-1c-0.1-0.6-0.2-1.5-0.5-2.6
			c-0.6-2.1-1.1-5-2.3-7.7c-0.9-2.8-2.3-5.3-3.2-7.3c-0.4-1-1-1.7-1.3-2.3C2589.8,372,2589.6,371.7,2589.6,371.7"/>
		<path class="st0" d="M2557.8,346.1l-4.3,12.5c0,0,1.1,0.4,2.7,1c0.8,0.3,1.7,0.8,2.6,1.2c1,0.5,2,0.9,2.9,1.5
			c1,0.6,1.9,1.2,2.8,1.7c0.8,0.6,1.6,1.2,2.3,1.7c1.4,1,2.2,1.8,2.2,1.8l8.7-10c0,0-1-1-2.8-2.3c-0.9-0.7-1.9-1.4-3-2.2
			c-1.2-0.7-2.4-1.5-3.6-2.2c-1.2-0.8-2.5-1.4-3.8-2c-1.2-0.6-2.4-1.2-3.4-1.6C2559.2,346.6,2557.8,346.1,2557.8,346.1"/>
		<path class="st0" d="M2517.1,346.8l4.7,12.4c0,0,1.1-0.4,2.6-1c0.8-0.2,1.8-0.5,2.8-0.7c1-0.3,2.1-0.6,3.2-0.7
			c1.1-0.2,2.2-0.3,3.3-0.5c1.1-0.1,2-0.1,2.9-0.1c0.4,0,0.8,0,1.2-0.1c0.2,0,0.3,0,0.5,0l0.1,0h0h0c0.4,0-0.5,0-0.4,0h0l0,0l0.1,0
			l0.2,0c0.6,0,0.9,0,0.9,0l0.7-13.2c0,0-0.3,0-0.9,0l-0.2,0l-0.1,0l-0.4,0c-0.2,0-0.4,0-0.6,0c-0.4,0-0.9,0-1.5,0.1
			c-1.1,0.1-2.4,0.1-3.7,0.2c-1.3,0.2-2.8,0.4-4.2,0.6c-1.4,0.2-2.9,0.5-4.2,0.9c-1.3,0.3-2.6,0.7-3.6,0.9
			C2518.5,346.3,2517.1,346.8,2517.1,346.8"/>
		<path class="st0" d="M2867.8,462.4l-0.3-13.2c0,0-0.3,0-0.8,0l-0.1,0l-0.1,0h0c0.9,0,0.2,0,0.4,0h0l0,0h0l-0.3,0
			c-0.2,0-0.4,0-0.6,0c-0.4,0-0.9,0-1.4-0.1c-1-0.1-2.2-0.1-3.4-0.2c-0.9-0.2-2-0.3-3-0.5c-1-0.1-2.1-0.4-3.1-0.7
			c-1-0.3-2-0.5-2.8-0.7c-1.6-0.6-2.6-1-2.6-1l-4.8,12.4c0,0,1.4,0.5,3.4,1.2c1,0.3,2.3,0.6,3.6,1c1.3,0.3,2.7,0.7,4.2,0.9
			c1.5,0.2,3,0.4,4.4,0.6c1.3,0.1,2.4,0.1,3.4,0.2c0.5,0,1,0.1,1.4,0.1c0.2,0,0.4,0,0.6,0l0.3,0l0.3,0l0.1,0l0.1,0
			C2867.4,462.4,2867.8,462.4,2867.8,462.4"/>
		<path class="st0" d="M2905.9,447.6l-8.7-10c0,0-0.8,0.8-2.2,1.8c-0.7,0.5-1.5,1.1-2.3,1.7c-0.9,0.5-1.9,1.1-2.8,1.7
			c-0.9,0.6-2,1.1-2.9,1.5c-1,0.4-1.8,0.9-2.6,1.2c-1.6,0.6-2.7,1-2.7,1l4.3,12.5c0,0,1.4-0.5,3.4-1.3c1-0.4,2.1-1,3.4-1.6
			c1.2-0.6,2.6-1.2,3.8-2c1.2-0.8,2.5-1.5,3.6-2.2c1.1-0.8,2.1-1.6,3-2.2C2904.9,448.7,2905.9,447.6,2905.9,447.6"/>
		<path class="st0" d="M2925.6,411.9l-13.1-1.8c0,0,0,0.3-0.1,0.7c-0.1,0.5-0.1,1.1-0.4,1.9c-0.4,1.6-0.9,3.9-1.8,5.9
			c-0.7,2.2-1.8,4.1-2.5,5.7c-0.8,1.5-1.4,2.4-1.4,2.4l11.3,6.9c0,0,0.8-1.2,1.8-3.1c0.9-2,2.3-4.5,3.2-7.3c1.1-2.7,1.7-5.5,2.3-7.7
			c0.3-1,0.4-2,0.5-2.6C2925.6,412.3,2925.6,411.9,2925.6,411.9"/>
		<path class="st0" d="M2814.2,373.7l11.6,6.4c0,0,0.6-1,1.5-2.4c0.4-0.7,1-1.6,1.6-2.4c0.7-0.8,1.3-1.8,2-2.6
			c1.5-1.7,3-3.4,4.3-4.5c0.6-0.6,1.1-1.1,1.5-1.4c0.4-0.3,0.6-0.5,0.6-0.5l-8.3-10.3c0,0-0.3,0.2-0.8,0.6c-0.5,0.4-1.1,1-1.9,1.8
			c-1.7,1.4-3.6,3.6-5.6,5.7c-0.9,1.1-1.8,2.3-2.6,3.4c-0.8,1.1-1.6,2.1-2.1,3.1C2815,372.5,2814.2,373.7,2814.2,373.7"/>
		<path class="st0" d="M2807.9,414.1l13-2.5c0,0-0.2-1.1-0.4-2.8c-0.2-0.8-0.3-1.8-0.3-2.9c0-0.5-0.1-1.1-0.1-1.6l0-0.8l0-0.4l0-0.2
			l0-0.1l0-0.1v0c0,0.9,0,0.2,0,0.4v0l0,0c0.1-1.3,0.1-2.7,0.2-3.9c0-0.6,0.1-1.3,0.1-1.8c0.1-0.4,0.2-0.8,0.2-1.2
			c0.2-1.5,0.4-2.5,0.4-2.5l-13-2.5c0,0-0.2,1.5-0.6,3.7c-0.1,0.6-0.2,1.2-0.3,1.8c-0.1,0.6-0.1,1.2-0.1,1.8
			c-0.1,1.3-0.1,2.6-0.2,3.9l0,0.4l0,0.1l0,0.3l0,0.5l0.1,1.1c0,0.7,0.1,1.4,0.1,2.1c0,1.4,0.2,2.6,0.4,3.7
			C2807.7,412.7,2807.9,414.1,2807.9,414.1"/>
		<path class="st0" d="M2828.9,449l8.4-10.3c0,0-3.5-2.9-6.4-6.4c-1.3-1.8-2.8-3.5-3.6-5.1c-0.9-1.4-1.5-2.4-1.5-2.4l-11.6,6.4
			c0,0,0.8,1.2,1.9,3.1c1,1.9,2.9,4.2,4.7,6.5C2824.4,445.3,2828.9,449,2828.9,449"/>
		<path class="st0" d="M2917.8,371.7l-11.3,6.9c0,0,0.1,0.2,0.4,0.7c0.2,0.4,0.7,1,1,1.8c0.7,1.5,1.8,3.5,2.5,5.7
			c0.9,2.1,1.3,4.3,1.8,5.9c0.3,0.8,0.3,1.5,0.4,2c0.1,0.5,0.1,0.8,0.1,0.8l13.1-2c0,0-0.1-0.4-0.2-1c-0.1-0.6-0.2-1.5-0.5-2.6
			c-0.6-2.1-1.1-5-2.3-7.7c-0.9-2.8-2.3-5.3-3.2-7.3c-0.4-1-1-1.7-1.3-2.3C2917.9,372,2917.8,371.7,2917.8,371.7"/>
		<path class="st0" d="M2886,346.1l-4.3,12.5c0,0,1.1,0.4,2.7,1c0.8,0.3,1.7,0.8,2.6,1.2c1,0.5,2,0.9,2.9,1.5c1,0.6,1.9,1.2,2.8,1.7
			c0.8,0.6,1.6,1.2,2.3,1.7c1.4,1,2.2,1.8,2.2,1.8l8.7-10c0,0-1-1-2.8-2.3c-0.9-0.7-1.9-1.4-3-2.2c-1.2-0.7-2.4-1.5-3.6-2.2
			c-1.2-0.8-2.5-1.4-3.8-2c-1.2-0.6-2.4-1.2-3.4-1.6C2887.3,346.6,2886,346.1,2886,346.1"/>
		<path class="st0" d="M2845.3,346.8l4.7,12.4c0,0,1.1-0.4,2.6-1c0.8-0.2,1.8-0.5,2.8-0.7c1-0.3,2.1-0.6,3.2-0.7
			c1.1-0.2,2.2-0.3,3.3-0.5c1.1-0.1,2-0.1,2.9-0.1c0.4,0,0.8,0,1.2-0.1c0.2,0,0.3,0,0.5,0l0.1,0h0h0c0.4,0-0.5,0-0.4,0h0l0,0l0.1,0
			l0.2,0c0.6,0,0.9,0,0.9,0l0.7-13.2c0,0-0.3,0-0.9,0l-0.2,0l-0.1,0l-0.4,0c-0.2,0-0.4,0-0.6,0c-0.4,0-0.9,0-1.5,0.1
			c-1.1,0.1-2.4,0.1-3.7,0.2c-1.3,0.2-2.8,0.4-4.2,0.6c-1.4,0.2-2.9,0.5-4.2,0.9c-1.3,0.3-2.6,0.7-3.6,0.9
			C2846.7,346.3,2845.3,346.8,2845.3,346.8"/>
	</g>
</g>
</svg>
