<?xml version="1.0" encoding="utf-8"?>
<!-- Generator: Adobe Illustrator 21.0.0, SVG Export Plug-In . SVG Version: 6.00 Build 0)  -->
<svg version="1.1" id="圖層_1" xmlns="http://www.w3.org/2000/svg" xmlns:xlink="http://www.w3.org/1999/xlink" x="0px" y="0px"
	 viewBox="0 0 750 750" style="enable-background:new 0 0 750 750;" xml:space="preserve">
<style type="text/css">
	.st0 {
	  fill-rule: evenodd;
	  clip-rule: evenodd;
	  fill: #FFCD38; }

	.st2 {
	  fill: #FFCD38; }

	.st5 {
	  fill: none;
	  stroke: #3A4750;
	  stroke-width: 8;
	  stroke-miterlimit: 10; }

	.st6 {
	  fill: none;
	  stroke: #3A4750;
	  stroke-width: 5;
	  stroke-miterlimit: 10; }

	#tirecircle1 {
	  -webkit-animation: ani1 1s infinite;
	  animation: ani1 1s infinite; }
	#tirecircle2 {
	  -webkit-animation: ani1 1s infinite;
	  animation: ani1 1s infinite;
	  animation-delay: 0.2s; }

	#tirerotate {
	  -webkit-animation: ani2 1s infinite;
	  animation: ani2 1s infinite; }

	#tireskew {
	  left: 0px;
	  -webkit-animation: ani3 1s infinite;
	  animation: ani3 1s infinite; }

	@-webkit-keyframes ani1 {
	  0% {
	    -webkit-transform: translateX(0px) translateY(0px);
	    transform: translateX(0px) translateY(0px); }
	  20% {
	    -webkit-transform: translateX(5px) translateY(0px);
	    transform: translateX(5px) translateY(0px); }
	  40% {
	    -webkit-transform: translateX(5px) translateY(-5px);
	    transform: translateX(5px) translateY(-5px); }
	  60% {
	    -webkit-transform: translateX(0px) translateY(-5px);
	    transform: translateX(0px) translateY(-5px); }
	  80% {
	    -webkit-transform: translateX(0px) translateY(0px);
	    transform: translateX(0px) translateY(0px); } }

	@keyframes ani1 {
	  0% {
	    -webkit-transform: translateX(0px) translateY(0px);
	    transform: translateX(0px) translateY(0px); }
	  20% {
	    -webkit-transform: translateX(5px) translateY(0px);
	    transform: translateX(5px) translateY(0px); }
	  40% {
	    -webkit-transform: translateX(5px) translateY(-5px);
	    transform: translateX(5px) translateY(-5px); }
	  60% {
	    -webkit-transform: translateX(0px) translateY(-5px);
	    transform: translateX(0px) translateY(-5px); }
	  80% {
	    -webkit-transform: translateX(0px) translateY(0px);
	    transform: translateX(0px) translateY(0px); } }

	@-webkit-keyframes ani2 {
	  0% {
	    -webkit-transform: rotate(0deg);
	    transform: rotate(0deg);
	    -webkit-transform-origin: 0% 100%;
	    transform-origin: 0% 100%; }
	  50% {
	    -webkit-transform: rotate(3deg);
	    transform: rotate(3deg);
	    -webkit-transform-origin: 0% 100%;
	    transform-origin: 0% 100%; }
	  100% {
	    -webkit-transform: rotate(0deg);
	    transform: rotate(0deg);
	    -webkit-transform-origin: 0% 100%;
	    transform-origin: 0% 100%; } }

	@keyframes ani2 {
	  0% {
	    -webkit-transform: rotate(0deg);
	    transform: rotate(0deg);
	    -webkit-transform-origin: 0% 100%;
	    transform-origin: 0% 100%; }
	  50% {
	    -webkit-transform: rotate(3deg);
	    transform: rotate(3deg);
	    -webkit-transform-origin: 0% 100%;
	    transform-origin: 0% 100%; }
	  100% {
	    -webkit-transform: rotate(0deg);
	    transform: rotate(0deg);
	    -webkit-transform-origin: 0% 100%;
	    transform-origin: 0% 100%; } }

	@-webkit-keyframes ani3 {
	  0% {
	    -webkit-transform: skew(1deg);
	    transform: skew(1deg);
	    -webkit-transform-origin: 0% 100%;
	    transform-origin: 0% 100%; }
	  50% {
	    -webkit-transform: skew(-1deg);
	    transform: skew(-1deg);
	    -webkit-transform-origin: 0% 100%;
	    transform-origin: 0% 100%; }
	  100% {
	    -webkit-transform: skew(1deg);
	    transform: skew(1deg);
	    -webkit-transform-origin: 0% 100%;
	    transform-origin: 0% 100%; } }

	@keyframes ani3 {
	  0% {
	    -webkit-transform: skew(1deg);
	    transform: skew(1deg);
	    -webkit-transform-origin: 0% 100%;
	    transform-origin: 0% 100%; }
	  50% {
	    -webkit-transform: skew(-1deg);
	    transform: skew(-1deg);
	    -webkit-transform-origin: 0% 100%;
	    transform-origin: 0% 100%; }
	  100% {
	    -webkit-transform: skew(1deg);
	    transform: skew(1deg);
	    -webkit-transform-origin: 0% 100%;
	    transform-origin: 0% 100%; } }
</style>
<g>
	<g>
		<defs>
			<rect id="SVGID_1_" x="-835.1" y="74.5" width="847.6" height="600.9"/>
		</defs>
		<clipPath id="SVGID_2_">
			<use xlink:href="#SVGID_1_"  style="overflow:visible;"/>
		</clipPath>
	</g>
</g>
<g>
	<g>
		<g id="tirerotate">
			<circle class="st5" cx="228.5" cy="402.6" r="76.3"/>
		</g>	
		<g id="tirerotate">
			<circle class="st5" cx="556.6" cy="402.6" r="76.3"/>
		</g>
		<g id="tirecircle1">
			<path class="st6" d="M231.8,393.7L287,246.1c0.8-2.1,2.9-3.5,5.2-3.2L489,263.8c4.2,0.5,6,5.6,3,8.6l-89.8,87.2
			c-0.6,0.6-1.4,1.1-2.3,1.3l-162.2,39.5C233.7,401.3,230.4,397.5,231.8,393.7z"/>
			<line class="st6" x1="401.1" y1="360.5" x2="288.4" y2="242.4"/>
			<path class="st6" d="M556.6,402.6l-70.4-166.9c-1.8-4.3,2.1-8.7,6.6-7.5l38.2,10.5c4.5,1.2,5.6,7.1,1.8,9.9l-13.6,9.8"/>
		</g>
		<g id="tirecircle2">
			<path class="st2" d="M256,205.4l-6.2,27.8c-0.8,3.6,2.5,6.8,6.1,6l57.6-13.9c5-1.2,5.1-8.4,0.1-9.7l-51.4-13.9
				C259.4,200.9,256.6,202.6,256,205.4"/>
		</g>
		<path class="st0" d="M229.6,462.4l-0.3-13.2c0,0-0.3,0-0.8,0l-0.1,0l-0.1,0h0c0.9,0,0.2,0,0.4,0h0l0,0h0l-0.3,0
			c-0.2,0-0.4,0-0.6,0c-0.4,0-0.9,0-1.4-0.1c-1-0.1-2.2-0.1-3.4-0.2c-0.9-0.2-2-0.3-3-0.5c-1-0.1-2.1-0.4-3.1-0.7
			c-1-0.3-2-0.5-2.8-0.7c-1.6-0.6-2.6-1-2.6-1l-4.8,12.4c0,0,1.4,0.5,3.4,1.2c1,0.3,2.3,0.6,3.6,1c1.3,0.3,2.7,0.7,4.2,0.9
			c1.5,0.2,3,0.4,4.4,0.6c1.3,0.1,2.4,0.1,3.4,0.2c0.5,0,1,0.1,1.4,0.1c0.2,0,0.4,0,0.6,0l0.3,0l0.3,0l0.1,0l0.1,0
			C229.3,462.4,229.6,462.4,229.6,462.4"/>
		<path class="st0" d="M267.7,447.6l-8.7-10c0,0-0.8,0.8-2.2,1.8c-0.7,0.5-1.5,1.1-2.3,1.7c-0.9,0.5-1.9,1.1-2.8,1.7
			c-0.9,0.6-2,1.1-2.9,1.5c-1,0.4-1.8,0.9-2.6,1.2c-1.6,0.6-2.7,1-2.7,1l4.3,12.5c0,0,1.4-0.5,3.4-1.3c1-0.4,2.1-1,3.4-1.6
			c1.2-0.6,2.6-1.2,3.8-2c1.2-0.8,2.5-1.5,3.6-2.2c1.1-0.8,2.1-1.6,3-2.2C266.7,448.7,267.7,447.6,267.7,447.6"/>
		<path class="st0" d="M287.5,411.9l-13.1-1.8c0,0,0,0.3-0.1,0.7c-0.1,0.5-0.1,1.1-0.4,1.9c-0.4,1.6-0.9,3.9-1.8,5.9
			c-0.7,2.2-1.8,4.1-2.5,5.7c-0.8,1.5-1.4,2.4-1.4,2.4l11.3,6.9c0,0,0.8-1.2,1.8-3.1c0.9-2,2.3-4.5,3.2-7.3c1.1-2.7,1.7-5.5,2.3-7.7
			c0.3-1,0.4-2,0.5-2.6C287.4,412.3,287.5,411.9,287.5,411.9"/>
		<path class="st0" d="M176.1,373.7l11.6,6.4c0,0,0.6-1,1.5-2.4c0.4-0.7,1-1.6,1.6-2.4c0.7-0.8,1.3-1.8,2-2.6c1.5-1.7,3-3.4,4.3-4.5
			c0.6-0.6,1.1-1.1,1.5-1.4c0.4-0.3,0.6-0.5,0.6-0.5l-8.3-10.3c0,0-0.3,0.2-0.8,0.6c-0.5,0.4-1.1,1-1.9,1.8
			c-1.7,1.4-3.6,3.6-5.6,5.7c-0.9,1.1-1.8,2.3-2.6,3.4c-0.8,1.1-1.6,2.1-2.1,3.1C176.8,372.5,176.1,373.7,176.1,373.7"/>
		<path class="st0" d="M169.8,414.1l13-2.5c0,0-0.2-1.1-0.4-2.8c-0.2-0.8-0.3-1.8-0.3-2.9c0-0.5-0.1-1.1-0.1-1.6l0-0.8l0-0.4l0-0.2
			l0-0.1l0-0.1v0c0,0.9,0,0.2,0,0.4v0l0,0c0.1-1.3,0.1-2.7,0.2-3.9c0-0.6,0.1-1.3,0.1-1.8c0.1-0.4,0.2-0.8,0.2-1.2
			c0.2-1.5,0.4-2.5,0.4-2.5l-13-2.5c0,0-0.2,1.5-0.6,3.7c-0.1,0.6-0.2,1.2-0.3,1.8c-0.1,0.6-0.1,1.2-0.1,1.8
			c-0.1,1.3-0.1,2.6-0.2,3.9l0,0.4l0,0.1l0,0.3l0,0.5l0.1,1.1c0,0.7,0.1,1.4,0.1,2.1c0,1.4,0.2,2.6,0.4,3.7
			C169.6,412.7,169.8,414.1,169.8,414.1"/>
		<path class="st0" d="M190.8,449l8.4-10.3c0,0-3.5-2.9-6.4-6.4c-1.3-1.8-2.8-3.5-3.6-5.1c-0.9-1.4-1.5-2.4-1.5-2.4l-11.6,6.4
			c0,0,0.8,1.2,1.9,3.1c1,1.9,2.9,4.2,4.7,6.5C186.2,445.3,190.8,449,190.8,449"/>
		<path class="st0" d="M279.6,371.7l-11.3,6.9c0,0,0.1,0.2,0.4,0.7c0.2,0.4,0.7,1,1,1.8c0.7,1.5,1.8,3.5,2.5,5.7
			c0.9,2.1,1.3,4.3,1.8,5.9c0.3,0.8,0.3,1.5,0.4,2c0.1,0.5,0.1,0.8,0.1,0.8l13.1-2c0,0-0.1-0.4-0.2-1c-0.1-0.6-0.2-1.5-0.5-2.6
			c-0.6-2.1-1.1-5-2.3-7.7c-0.9-2.8-2.3-5.3-3.2-7.3c-0.4-1-1-1.7-1.3-2.3C279.8,372,279.6,371.7,279.6,371.7"/>
		<path class="st0" d="M247.8,346.1l-4.3,12.5c0,0,1.1,0.4,2.7,1c0.8,0.3,1.7,0.8,2.6,1.2c1,0.5,2,0.9,2.9,1.5
			c1,0.6,1.9,1.2,2.8,1.7c0.8,0.6,1.6,1.2,2.3,1.7c1.4,1,2.2,1.8,2.2,1.8l8.7-10c0,0-1-1-2.8-2.3c-0.9-0.7-1.9-1.4-3-2.2
			c-1.2-0.7-2.4-1.5-3.6-2.2c-1.2-0.8-2.5-1.4-3.8-2c-1.2-0.6-2.4-1.2-3.4-1.6C249.2,346.6,247.8,346.1,247.8,346.1"/>
		<path class="st0" d="M207.1,346.8l4.7,12.4c0,0,1.1-0.4,2.6-1c0.8-0.2,1.8-0.5,2.8-0.7c1-0.3,2.1-0.6,3.2-0.7
			c1.1-0.2,2.2-0.3,3.3-0.5c1.1-0.1,2-0.1,2.9-0.1c0.4,0,0.8,0,1.2-0.1c0.2,0,0.3,0,0.5,0l0.1,0h0h0c0.4,0-0.5,0-0.4,0h0l0,0l0.1,0
			l0.2,0c0.6,0,0.9,0,0.9,0l0.7-13.2c0,0-0.3,0-0.9,0l-0.2,0l-0.1,0l-0.4,0c-0.2,0-0.4,0-0.6,0c-0.4,0-0.9,0-1.5,0.1
			c-1.1,0.1-2.4,0.1-3.7,0.2c-1.3,0.2-2.8,0.4-4.2,0.6c-1.4,0.2-2.9,0.5-4.2,0.9c-1.3,0.3-2.6,0.7-3.6,0.9
			C208.5,346.3,207.1,346.8,207.1,346.8"/>
		<path class="st0" d="M557.8,462.4l-0.3-13.2c0,0-0.3,0-0.8,0l-0.1,0l-0.1,0h0c0.9,0,0.2,0,0.4,0h0l0,0h0l-0.3,0
			c-0.2,0-0.4,0-0.6,0c-0.4,0-0.9,0-1.4-0.1c-1-0.1-2.2-0.1-3.4-0.2c-0.9-0.2-2-0.3-3-0.5c-1-0.1-2.1-0.4-3.1-0.7
			c-1-0.3-2-0.5-2.8-0.7c-1.6-0.6-2.6-1-2.6-1l-4.8,12.4c0,0,1.4,0.5,3.4,1.2c1,0.3,2.3,0.6,3.6,1c1.3,0.3,2.7,0.7,4.2,0.9
			c1.5,0.2,3,0.4,4.4,0.6c1.3,0.1,2.4,0.1,3.4,0.2c0.5,0,1,0.1,1.4,0.1c0.2,0,0.4,0,0.6,0l0.3,0l0.3,0l0.1,0l0.1,0
			C557.4,462.4,557.8,462.4,557.8,462.4"/>
		<path class="st0" d="M595.9,447.6l-8.7-10c0,0-0.8,0.8-2.2,1.8c-0.7,0.5-1.5,1.1-2.3,1.7c-0.9,0.5-1.9,1.1-2.8,1.7
			c-0.9,0.6-2,1.1-2.9,1.5c-1,0.4-1.8,0.9-2.6,1.2c-1.6,0.6-2.7,1-2.7,1l4.3,12.5c0,0,1.4-0.5,3.4-1.3c1-0.4,2.1-1,3.4-1.6
			c1.2-0.6,2.6-1.2,3.8-2c1.2-0.8,2.5-1.5,3.6-2.2c1.1-0.8,2.1-1.6,3-2.2C594.9,448.7,595.9,447.6,595.9,447.6"/>
		<path class="st0" d="M615.6,411.9l-13.1-1.8c0,0,0,0.3-0.1,0.7c-0.1,0.5-0.1,1.1-0.4,1.9c-0.4,1.6-0.9,3.9-1.8,5.9
			c-0.7,2.2-1.8,4.1-2.5,5.7c-0.8,1.5-1.4,2.4-1.4,2.4l11.3,6.9c0,0,0.8-1.2,1.8-3.1c0.9-2,2.3-4.5,3.2-7.3c1.1-2.7,1.7-5.5,2.3-7.7
			c0.3-1,0.4-2,0.5-2.6C615.6,412.3,615.6,411.9,615.6,411.9"/>
		<path class="st0" d="M504.2,373.7l11.6,6.4c0,0,0.6-1,1.5-2.4c0.4-0.7,1-1.6,1.6-2.4c0.7-0.8,1.3-1.8,2-2.6c1.5-1.7,3-3.4,4.3-4.5
			c0.6-0.6,1.1-1.1,1.5-1.4c0.4-0.3,0.6-0.5,0.6-0.5l-8.3-10.3c0,0-0.3,0.2-0.8,0.6c-0.5,0.4-1.1,1-1.9,1.8
			c-1.7,1.4-3.6,3.6-5.6,5.7c-0.9,1.1-1.8,2.3-2.6,3.4c-0.8,1.1-1.6,2.1-2.1,3.1C505,372.5,504.2,373.7,504.2,373.7"/>
		<path class="st0" d="M497.9,414.1l13-2.5c0,0-0.2-1.1-0.4-2.8c-0.2-0.8-0.3-1.8-0.3-2.9c0-0.5-0.1-1.1-0.1-1.6l0-0.8l0-0.4l0-0.2
			l0-0.1l0-0.1v0c0,0.9,0,0.2,0,0.4v0l0,0c0.1-1.3,0.1-2.7,0.2-3.9c0-0.6,0.1-1.3,0.1-1.8c0.1-0.4,0.2-0.8,0.2-1.2
			c0.2-1.5,0.4-2.5,0.4-2.5l-13-2.5c0,0-0.2,1.5-0.6,3.7c-0.1,0.6-0.2,1.2-0.3,1.8c-0.1,0.6-0.1,1.2-0.1,1.8
			c-0.1,1.3-0.1,2.6-0.2,3.9l0,0.4l0,0.1l0,0.3l0,0.5l0.1,1.1c0,0.7,0.1,1.4,0.1,2.1c0,1.4,0.2,2.6,0.4,3.7
			C497.7,412.7,497.9,414.1,497.9,414.1"/>
		<path class="st0" d="M518.9,449l8.4-10.3c0,0-3.5-2.9-6.4-6.4c-1.3-1.8-2.8-3.5-3.6-5.1c-0.9-1.4-1.5-2.4-1.5-2.4l-11.6,6.4
			c0,0,0.8,1.2,1.9,3.1c1,1.9,2.9,4.2,4.7,6.5C514.4,445.3,518.9,449,518.9,449"/>
		<path class="st0" d="M607.8,371.7l-11.3,6.9c0,0,0.1,0.2,0.4,0.7c0.2,0.4,0.7,1,1,1.8c0.7,1.5,1.8,3.5,2.5,5.7
			c0.9,2.1,1.3,4.3,1.8,5.9c0.3,0.8,0.3,1.5,0.4,2c0.1,0.5,0.1,0.8,0.1,0.8l13.1-2c0,0-0.1-0.4-0.2-1c-0.1-0.6-0.2-1.5-0.5-2.6
			c-0.6-2.1-1.1-5-2.3-7.7c-0.9-2.8-2.3-5.3-3.2-7.3c-0.4-1-1-1.7-1.3-2.3C607.9,372,607.8,371.7,607.8,371.7"/>
		<path class="st0" d="M576,346.1l-4.3,12.5c0,0,1.1,0.4,2.7,1c0.8,0.3,1.7,0.8,2.6,1.2c1,0.5,2,0.9,2.9,1.5c1,0.6,1.9,1.2,2.8,1.7
			c0.8,0.6,1.6,1.2,2.3,1.7c1.4,1,2.2,1.8,2.2,1.8l8.7-10c0,0-1-1-2.8-2.3c-0.9-0.7-1.9-1.4-3-2.2c-1.2-0.7-2.4-1.5-3.6-2.2
			c-1.2-0.8-2.5-1.4-3.8-2c-1.2-0.6-2.4-1.2-3.4-1.6C577.3,346.6,576,346.1,576,346.1"/>
		<path class="st0" d="M535.3,346.8l4.7,12.4c0,0,1.1-0.4,2.6-1c0.8-0.2,1.8-0.5,2.8-0.7c1-0.3,2.1-0.6,3.2-0.7
			c1.1-0.2,2.2-0.3,3.3-0.5c1.1-0.1,2-0.1,2.9-0.1c0.4,0,0.8,0,1.2-0.1c0.2,0,0.3,0,0.5,0l0.1,0h0h0c0.4,0-0.5,0-0.4,0h0l0,0l0.1,0
			l0.2,0c0.6,0,0.9,0,0.9,0l0.7-13.2c0,0-0.3,0-0.9,0l-0.2,0l-0.1,0l-0.4,0c-0.2,0-0.4,0-0.6,0c-0.4,0-0.9,0-1.5,0.1
			c-1.1,0.1-2.4,0.1-3.7,0.2c-1.3,0.2-2.8,0.4-4.2,0.6c-1.4,0.2-2.9,0.5-4.2,0.9c-1.3,0.3-2.6,0.7-3.6,0.9
			C536.7,346.3,535.3,346.8,535.3,346.8"/>
	</g>
</g>
</svg>
