<?xml version="1.0" encoding="utf-8"?>
<!-- Generator: Adobe Illustrator 21.0.0, SVG Export Plug-In . SVG Version: 6.00 Build 0)  -->
<svg version="1.1" id="圖層_1" xmlns="http://www.w3.org/2000/svg" xmlns:xlink="http://www.w3.org/1999/xlink" x="0px" y="0px"
	 viewBox="0 0 750 750" style="enable-background:new 0 0 750 750;" xml:space="preserve">
<style type="text/css">
	.st0 {
		fill: #3A4750;
	  	stroke: #3A4750; }
	.st1 {
		fill: none;
		stroke-width: 15;
	  	stroke: #3A4750; }
	.st2 {
	  fill: #FC8A15; }

	#tirecircle1 {
	  -webkit-animation: ani1 1s infinite;
	  animation: ani1 1s infinite; }
	#tirecircle2 {
	  -webkit-animation: ani1 1s infinite;
	  animation: ani1 1s infinite;
	  animation-delay: 0.2s; }

	#tirerotate {
	  -webkit-animation: ani2 1s infinite;
	  animation: ani2 1s infinite; }

	#tireskew {
	  left: 0px;
	  -webkit-animation: ani3 1s infinite;
	  animation: ani3 1s infinite; }

	@-webkit-keyframes ani1 {
	  0% {
	    -webkit-transform: translateX(0px) translateY(0px);
	    transform: translateX(0px) translateY(0px); }
	  20% {
	    -webkit-transform: translateX(5px) translateY(0px);
	    transform: translateX(5px) translateY(0px); }
	  40% {
	    -webkit-transform: translateX(5px) translateY(-5px);
	    transform: translateX(5px) translateY(-5px); }
	  60% {
	    -webkit-transform: translateX(0px) translateY(-5px);
	    transform: translateX(0px) translateY(-5px); }
	  80% {
	    -webkit-transform: translateX(0px) translateY(0px);
	    transform: translateX(0px) translateY(0px); } }

	@keyframes ani1 {
	  0% {
	    -webkit-transform: translateX(0px) translateY(0px);
	    transform: translateX(0px) translateY(0px); }
	  20% {
	    -webkit-transform: translateX(5px) translateY(0px);
	    transform: translateX(5px) translateY(0px); }
	  40% {
	    -webkit-transform: translateX(5px) translateY(-5px);
	    transform: translateX(5px) translateY(-5px); }
	  60% {
	    -webkit-transform: translateX(0px) translateY(-5px);
	    transform: translateX(0px) translateY(-5px); }
	  80% {
	    -webkit-transform: translateX(0px) translateY(0px);
	    transform: translateX(0px) translateY(0px); } }

	@-webkit-keyframes ani2 {
	  0% {
	    -webkit-transform: rotate(0deg);
	    transform: rotate(0deg);
	    -webkit-transform-origin: 0% 100%;
	    transform-origin: 0% 100%; }
	  50% {
	    -webkit-transform: rotate(2deg);
	    transform: rotate(2deg);
	    -webkit-transform-origin: 0% 100%;
	    transform-origin: 0% 100%; }
	  100% {
	    -webkit-transform: rotate(0deg);
	    transform: rotate(0deg);
	    -webkit-transform-origin: 0% 100%;
	    transform-origin: 0% 100%; } }

	@keyframes ani2 {
	  0% {
	    -webkit-transform: rotate(0deg);
	    transform: rotate(0deg);
	    -webkit-transform-origin: 0% 100%;
	    transform-origin: 0% 100%; }
	  50% {
	    -webkit-transform: rotate(2deg);
	    transform: rotate(2deg);
	    -webkit-transform-origin: 0% 100%;
	    transform-origin: 0% 100%; }
	  100% {
	    -webkit-transform: rotate(0deg);
	    transform: rotate(0deg);
	    -webkit-transform-origin: 0% 100%;
	    transform-origin: 0% 100%; } }

	@-webkit-keyframes ani3 {
	  0% {
	    -webkit-transform: skew(1deg);
	    transform: skew(1deg);
	    -webkit-transform-origin: 0% 100%;
	    transform-origin: 0% 100%; }
	  50% {
	    -webkit-transform: skew(-1deg);
	    transform: skew(-1deg);
	    -webkit-transform-origin: 0% 100%;
	    transform-origin: 0% 100%; }
	  100% {
	    -webkit-transform: skew(1deg);
	    transform: skew(1deg);
	    -webkit-transform-origin: 0% 100%;
	    transform-origin: 0% 100%; } }

	@keyframes ani3 {
	  0% {
	    -webkit-transform: skew(1deg);
	    transform: skew(1deg);
	    -webkit-transform-origin: 0% 100%;
	    transform-origin: 0% 100%; }
	  50% {
	    -webkit-transform: skew(-1deg);
	    transform: skew(-1deg);
	    -webkit-transform-origin: 0% 100%;
	    transform-origin: 0% 100%; }
	  100% {
	    -webkit-transform: skew(1deg);
	    transform: skew(1deg);
	    -webkit-transform-origin: 0% 100%;
	    transform-origin: 0% 100%; } }
</style>
<g>
	<g>
		<defs>
			<rect id="SVGID_1_" x="-65.1" y="74.5" width="847.6" height="600.9"/>
		</defs>
		<clipPath id="SVGID_2_">
			<use xlink:href="#SVGID_1_"  style="overflow:visible;"/>
		</clipPath>
	</g>
	<g>
		<g id="tirerotate">
			<path class="st0" d="M227.9,503.3l-3.6-8c0,0-0.7,0.3-1.7,0.6c-1,0.4-2.4,0.9-3.8,1.2c-1.4,0.4-2.8,0.7-3.9,0.8l-1.8,0.3l1,8.7
				c0,0,0.9-0.1,2.2-0.3c1.3-0.1,3.1-0.5,4.8-1c1.7-0.4,3.4-1,4.7-1.4C227.1,503.7,227.9,503.3,227.9,503.3"/>
			<path class="st0" d="M247.7,488.2l-7.3-5.2c0,0-0.4,0.6-1.1,1.4c-0.7,0.8-1.7,1.8-2.7,2.8c-1.1,0.9-2.2,1.9-3,2.6
				c-0.9,0.6-1.5,1-1.5,1l5.4,7c0,0,0.7-0.5,1.8-1.3c1-0.8,2.3-2,3.6-3.1c1.2-1.3,2.4-2.5,3.3-3.5L247.7,488.2z"/>
			<path class="st0" d="M257,465.8l-9-1c0,0-0.1,0.7-0.3,1.7c-0.1,1-0.5,2.4-0.8,3.7c-0.3,1.4-0.9,2.7-1.2,3.6
				c-0.2,0.5-0.3,0.9-0.4,1.2c-0.1,0.3-0.2,0.4-0.2,0.4l8.3,3.5c0,0,0.1-0.2,0.3-0.5c0.1-0.4,0.3-0.9,0.6-1.5
				c0.4-1.2,1.1-2.8,1.5-4.5c0.5-1.7,0.9-3.3,1-4.6C256.9,466.6,257,465.8,257,465.8"/>
			<path class="st0" d="M163.8,478.8l8.3-3.5c0,0-0.3-0.6-0.6-1.6c-0.4-1-0.9-2.3-1.2-3.6c-0.4-1.3-0.7-2.7-0.8-3.7
				c-0.2-1-0.3-1.7-0.3-1.7l-9,1c0,0,0.1,0.8,0.3,2.1c0.1,1.3,0.5,2.9,1,4.6c0.4,1.7,1,3.3,1.5,4.5
				C163.4,478,163.8,478.8,163.8,478.8"/>
			<path class="st0" d="M179.5,497.8l5.4-7c0,0-0.6-0.4-1.5-1c-0.8-0.7-1.9-1.6-3-2.6c-1-1-1.9-2.1-2.7-2.8c-0.6-0.8-1.1-1.4-1.1-1.4
				l-7.3,5.2c0,0,0.5,0.7,1.3,1.7c0.9,1,2.1,2.2,3.3,3.5c1.3,1.1,2.6,2.3,3.6,3.2C178.7,497.3,179.5,497.8,179.5,497.8"/>
			<path class="st0" d="M202.8,506.8l1.1-8.7c0,0-0.7-0.1-1.8-0.3c-1.1-0.1-2.5-0.4-3.9-0.8c-1.4-0.3-2.8-0.8-3.8-1.2
				c-0.5-0.2-0.9-0.3-1.2-0.4c-0.3-0.1-0.5-0.2-0.5-0.2l-3.6,8c0,0,0.2,0.1,0.6,0.2c0.4,0.1,0.9,0.3,1.5,0.5c1.3,0.4,2.9,1.1,4.6,1.5
				c1.7,0.4,3.4,0.9,4.8,1C201.9,506.7,202.8,506.8,202.8,506.8"/>
			<path class="st0" d="M189.2,417.1l3.6,8c0,0,0.7-0.3,1.7-0.6c1-0.4,2.4-0.9,3.8-1.2c1.4-0.4,2.8-0.7,3.9-0.8
				c1.1-0.2,1.8-0.3,1.8-0.3l-1-8.7c0,0-0.9,0.1-2.2,0.3c-1.3,0.1-3.1,0.5-4.8,1c-1.7,0.4-3.4,1-4.7,1.4
				C190.1,416.8,189.2,417.1,189.2,417.1"/>
			<path class="st0" d="M169.5,432.2l7.3,5.2c0,0,0.4-0.6,1.1-1.4c0.7-0.8,1.7-1.8,2.7-2.8c1.1-0.9,2.2-1.9,3-2.6
				c0.9-0.6,1.5-1,1.5-1l-5.4-7c0,0-0.7,0.5-1.8,1.3c-1,0.8-2.3,2-3.6,3.1c-1.2,1.3-2.4,2.5-3.3,3.5
				C170,431.5,169.5,432.2,169.5,432.2"/>
			<path class="st0" d="M160.1,454.6l9,1c0,0,0.1-0.7,0.3-1.7c0.1-1,0.5-2.4,0.8-3.7c0.3-1.4,0.9-2.7,1.2-3.6
				c0.2-0.5,0.3-0.9,0.4-1.2c0.1-0.3,0.2-0.4,0.2-0.4l-8.3-3.5c0,0-0.1,0.2-0.3,0.5c-0.1,0.4-0.3,0.9-0.6,1.5
				c-0.4,1.2-1.1,2.8-1.5,4.5c-0.5,1.7-0.9,3.3-1,4.6C160.3,453.8,160.1,454.6,160.1,454.6"/>
			<path class="st0" d="M253.4,441.6l-8.3,3.5c0,0,0.3,0.6,0.6,1.6c0.4,1,0.9,2.3,1.2,3.6c0.4,1.3,0.7,2.7,0.8,3.7
				c0.2,1,0.3,1.7,0.3,1.7l9-1c0,0-0.1-0.8-0.3-2.1c-0.1-1.3-0.5-2.9-1-4.6c-0.4-1.7-1-3.3-1.5-4.5
				C253.8,442.4,253.4,441.6,253.4,441.6"/>
			<path class="st0" d="M237.7,422.6l-5.4,7c0,0,0.6,0.4,1.5,1c0.8,0.7,1.9,1.6,3,2.6c1,1,1.9,2.1,2.7,2.8c0.6,0.8,1.1,1.4,1.1,1.4
				l7.3-5.2c0,0-0.5-0.7-1.3-1.7c-0.9-1-2.1-2.2-3.3-3.5c-1.3-1.1-2.6-2.3-3.6-3.2C238.4,423.1,237.7,422.6,237.7,422.6"/>
			<path class="st0" d="M214.4,413.6l-1.1,8.7c0,0,0.7,0.1,1.8,0.3c1.1,0.1,2.5,0.4,3.9,0.8c1.4,0.3,2.8,0.8,3.8,1.2
				c0.5,0.2,0.9,0.3,1.2,0.4c0.3,0.1,0.5,0.2,0.5,0.2l3.6-8c0,0-0.2-0.1-0.6-0.2c-0.4-0.1-0.9-0.3-1.5-0.5c-1.3-0.4-2.9-1.1-4.6-1.5
				c-1.7-0.4-3.4-0.9-4.8-1C215.3,413.7,214.4,413.6,214.4,413.6"/>
		</g>
		<g id="tirerotate">
			<ellipse class="st1" cx="208.6" cy="460.2" rx="33.3" ry="32"/>
		</g>
		<g id="tirerotate">
			<path class="st0" d="M337.8,503.3l-3.6-8c0,0-0.7,0.3-1.7,0.6c-1,0.4-2.4,0.9-3.8,1.2c-1.4,0.4-2.8,0.7-3.9,0.8
				c-1.1,0.2-1.8,0.3-1.8,0.3l1,8.7c0,0,0.9-0.1,2.2-0.3c1.3-0.1,3.1-0.5,4.8-1c1.7-0.4,3.4-1,4.7-1.4
				C337,503.7,337.8,503.3,337.8,503.3"/>
			<path class="st0" d="M357.6,488.2l-7.3-5.2c0,0-0.4,0.6-1.1,1.4c-0.7,0.8-1.7,1.8-2.7,2.8c-1.1,0.9-2.2,1.9-3,2.6
				c-0.9,0.6-1.5,1-1.5,1l5.4,7c0,0,0.7-0.5,1.8-1.3c1-0.8,2.3-2,3.6-3.1c1.2-1.3,2.4-2.5,3.3-3.5L357.6,488.2z"/>
			<path class="st0" d="M366.9,465.8l-9-1c0,0-0.1,0.7-0.3,1.7c-0.1,1-0.5,2.4-0.8,3.7c-0.3,1.4-0.9,2.7-1.2,3.6
				c-0.2,0.5-0.3,0.9-0.4,1.2c-0.1,0.3-0.2,0.4-0.2,0.4l8.3,3.5c0,0,0.1-0.2,0.3-0.5c0.1-0.4,0.3-0.9,0.6-1.5
				c0.4-1.2,1.1-2.8,1.5-4.5c0.5-1.7,0.9-3.3,1-4.6C366.8,466.6,366.9,465.8,366.9,465.8"/>
			<path class="st0" d="M273.7,478.8l8.3-3.5c0,0-0.3-0.6-0.6-1.6c-0.4-1-0.9-2.3-1.2-3.6c-0.4-1.3-0.7-2.7-0.8-3.7
				c-0.2-1-0.3-1.7-0.3-1.7l-9,1c0,0,0.1,0.8,0.3,2.1c0.1,1.3,0.5,2.9,1,4.6c0.4,1.7,1,3.3,1.5,4.5
				C273.3,478,273.7,478.8,273.7,478.8"/>
			<path class="st0" d="M289.3,497.8l5.4-7c0,0-0.6-0.4-1.5-1c-0.8-0.7-1.9-1.6-3-2.6c-1-1-1.9-2.1-2.7-2.8c-0.6-0.8-1.1-1.4-1.1-1.4
				l-7.3,5.2c0,0,0.5,0.7,1.3,1.7c0.9,1,2.1,2.2,3.3,3.5c1.3,1.1,2.6,2.3,3.6,3.2C288.6,497.3,289.3,497.8,289.3,497.8"/>
			<path class="st0" d="M312.7,506.8l1.1-8.7c0,0-0.7-0.1-1.8-0.3c-1.1-0.1-2.5-0.4-3.9-0.8c-1.4-0.3-2.8-0.8-3.8-1.2
				c-0.5-0.2-0.9-0.3-1.2-0.4c-0.3-0.1-0.5-0.2-0.5-0.2l-3.6,8c0,0,0.2,0.1,0.6,0.2c0.4,0.1,0.9,0.3,1.5,0.5c1.3,0.4,2.9,1.1,4.6,1.5
				c1.7,0.4,3.4,0.9,4.8,1C311.8,506.7,312.7,506.8,312.7,506.8"/>
			<path class="st0" d="M299.1,417.1l3.6,8c0,0,0.7-0.3,1.7-0.6c1-0.4,2.4-0.9,3.8-1.2c1.4-0.4,2.8-0.7,3.9-0.8
				c1.1-0.2,1.8-0.3,1.8-0.3l-1-8.7c0,0-0.9,0.1-2.2,0.3c-1.3,0.1-3.1,0.5-4.8,1c-1.7,0.4-3.4,1-4.7,1.4
				C299.9,416.8,299.1,417.1,299.1,417.1"/>
			<path class="st0" d="M279.4,432.2l7.3,5.2c0,0,0.4-0.6,1.1-1.4c0.7-0.8,1.7-1.8,2.7-2.8c1.1-0.9,2.2-1.9,3-2.6
				c0.9-0.6,1.5-1,1.5-1l-5.4-7c0,0-0.7,0.5-1.8,1.3c-1,0.8-2.3,2-3.6,3.1c-1.2,1.3-2.4,2.5-3.3,3.5L279.4,432.2z"/>
			<path class="st0" d="M270,454.6l9,1c0,0,0.1-0.7,0.3-1.7c0.1-1,0.5-2.4,0.8-3.7c0.3-1.4,0.9-2.7,1.2-3.6c0.2-0.5,0.3-0.9,0.4-1.2
				c0.1-0.3,0.2-0.4,0.2-0.4l-8.3-3.5c0,0-0.1,0.2-0.3,0.5c-0.1,0.4-0.3,0.9-0.6,1.5c-0.4,1.2-1.1,2.8-1.5,4.5
				c-0.5,1.7-0.9,3.3-1,4.6C270.2,453.8,270,454.6,270,454.6"/>
			<path class="st0" d="M363.3,441.6l-8.3,3.5c0,0,0.3,0.6,0.6,1.6c0.4,1,0.9,2.3,1.2,3.6c0.4,1.3,0.7,2.7,0.8,3.7
				c0.2,1,0.3,1.7,0.3,1.7l9-1c0,0-0.1-0.8-0.3-2.1c-0.1-1.3-0.5-2.9-1-4.6c-0.4-1.7-1-3.3-1.5-4.5
				C363.6,442.4,363.3,441.6,363.3,441.6"/>
			<path class="st0" d="M347.6,422.6l-5.4,7c0,0,0.6,0.4,1.5,1c0.8,0.7,1.9,1.6,3,2.6c1,1,1.9,2.1,2.7,2.8c0.6,0.8,1.1,1.4,1.1,1.4
				l7.3-5.2c0,0-0.5-0.7-1.3-1.7c-0.9-1-2.1-2.2-3.3-3.5c-1.3-1.1-2.6-2.3-3.6-3.2C348.3,423.1,347.6,422.6,347.6,422.6"/>
			<path class="st0" d="M324.3,413.6l-1.1,8.7c0,0,0.7,0.1,1.8,0.3c1.1,0.1,2.5,0.4,3.9,0.8c1.4,0.3,2.8,0.8,3.8,1.2
				c0.5,0.2,0.9,0.3,1.2,0.4c0.3,0.1,0.5,0.2,0.5,0.2l3.6-8c0,0-0.2-0.1-0.6-0.2c-0.4-0.1-0.9-0.3-1.5-0.5c-1.3-0.4-2.9-1.1-4.6-1.5
				c-1.7-0.4-3.4-0.9-4.8-1C325.1,413.7,324.3,413.6,324.3,413.6"/>
		</g>
		<g id="tirerotate">
			<ellipse class="st1" cx="318.5" cy="460.2" rx="33.3" ry="32"/>
		</g>
		<g id="tirecircle1">
			<path class="st2" d="M131.9,458.5H146c2,0,3.7-1.1,4.6-2.8l23.3-45.4c0.9-1.7,2.7-2.8,4.6-2.8h169.4c1.8,0,3.4,0.9,4.3,2.3
				l31,46.4c0.9,1.4,2.6,2.3,4.3,2.3h230.5c4.1,0,6.6-4.4,4.3-7.7l-2.5-3.6c-1-1.4-2.6-2.2-4.3-2.2h-84.4c-2.8,0-5.1-2.2-5.1-4.9V398
				c0-2.7-2.3-4.9-5.1-4.9h-389c-2.8,0-5.1,2.2-5.1,4.9v55.6C126.7,456.3,129,458.5,131.9,458.5"/>
		</g>
		<g id="tirecircle2">
			<path class="st2" d="M519.7,377.8H133.1c-3.4,0-6.1-2.6-6.1-5.8V204.6c0-3.2,2.7-5.8,6.1-5.8h386.5c3.4,0,6.1,2.6,6.1,5.8V372
			C525.8,375.2,523,377.8,519.7,377.8"/>
		</g>
	</g>
</g>
</svg>
